<mxfile host="app.diagrams.net" modified="2023-09-27T13:02:42.242Z" agent="Mozilla/5.0 (Windows NT 10.0; Win64; x64) AppleWebKit/537.36 (KHTML, like Gecko) Chrome/117.0.0.0 Safari/537.36" etag="X0PKS4TV8FRn304DQwUX" version="21.8.2" type="google">
  <diagram name="digrama" id="CZgTdF6MHRDGdA0P_sMb">
    <mxGraphModel grid="1" page="0" gridSize="10" guides="1" tooltips="1" connect="1" arrows="1" fold="1" pageScale="1" pageWidth="2336" pageHeight="1654" math="0" shadow="0">
      <root>
        <mxCell id="obTtGBHouLAVe-Cv3UEX-0" />
        <mxCell id="obTtGBHouLAVe-Cv3UEX-1" parent="obTtGBHouLAVe-Cv3UEX-0" />
        <mxCell id="obTtGBHouLAVe-Cv3UEX-90" value="Actions" style="swimlane;fontStyle=1;childLayout=stackLayout;horizontal=1;startSize=40;horizontalStack=0;resizeParent=1;resizeParentMax=0;resizeLast=0;collapsible=1;marginBottom=0;align=center;fontSize=20;rounded=0;shadow=1;labelBorderColor=none;sketch=1;hachureGap=4;jiggle=2;fillStyle=cross-hatch;curveFitting=1;strokeColor=#FF8000;strokeWidth=2;fontFamily=Helvetica;fillColor=none;gradientColor=none;" vertex="1" parent="obTtGBHouLAVe-Cv3UEX-1">
          <mxGeometry x="-560" y="1000" width="370" height="220" as="geometry" />
        </mxCell>
        <mxCell id="YHIWVxLttBBWoFxB0M0W-603" value="+ RegisterProduct()" style="shape=partialRectangle;connectable=0;fillColor=none;top=0;left=0;bottom=0;right=0;align=left;spacingLeft=6;overflow=hidden;sketch=1;hachureGap=4;jiggle=2;curveFitting=1;fontFamily=Helvetica;fontSize=20;" vertex="1" parent="obTtGBHouLAVe-Cv3UEX-90">
          <mxGeometry y="40" width="370" height="30" as="geometry">
            <mxRectangle width="280" height="30" as="alternateBounds" />
          </mxGeometry>
        </mxCell>
        <mxCell id="YHIWVxLttBBWoFxB0M0W-604" value="+ RegisterProductQuantity()" style="shape=partialRectangle;connectable=0;fillColor=none;top=0;left=0;bottom=0;right=0;align=left;spacingLeft=6;overflow=hidden;sketch=1;hachureGap=4;jiggle=2;curveFitting=1;fontFamily=Helvetica;fontSize=20;" vertex="1" parent="obTtGBHouLAVe-Cv3UEX-90">
          <mxGeometry y="70" width="370" height="30" as="geometry">
            <mxRectangle width="280" height="30" as="alternateBounds" />
          </mxGeometry>
        </mxCell>
        <mxCell id="YHIWVxLttBBWoFxB0M0W-606" value="+ RegisterResellerSale()" style="shape=partialRectangle;connectable=0;fillColor=none;top=0;left=0;bottom=0;right=0;align=left;spacingLeft=6;overflow=hidden;sketch=1;hachureGap=4;jiggle=2;curveFitting=1;fontFamily=Helvetica;fontSize=20;" vertex="1" parent="obTtGBHouLAVe-Cv3UEX-90">
          <mxGeometry y="100" width="370" height="30" as="geometry">
            <mxRectangle width="280" height="30" as="alternateBounds" />
          </mxGeometry>
        </mxCell>
        <mxCell id="YHIWVxLttBBWoFxB0M0W-607" value="+ RegisterUser()" style="shape=partialRectangle;connectable=0;fillColor=none;top=0;left=0;bottom=0;right=0;align=left;spacingLeft=6;overflow=hidden;sketch=1;hachureGap=4;jiggle=2;curveFitting=1;fontFamily=Helvetica;fontSize=20;" vertex="1" parent="obTtGBHouLAVe-Cv3UEX-90">
          <mxGeometry y="130" width="370" height="30" as="geometry">
            <mxRectangle width="240" height="30" as="alternateBounds" />
          </mxGeometry>
        </mxCell>
        <mxCell id="YHIWVxLttBBWoFxB0M0W-608" value="+ RegisterBranch()" style="shape=partialRectangle;connectable=0;fillColor=none;top=0;left=0;bottom=0;right=0;align=left;spacingLeft=6;overflow=hidden;sketch=1;hachureGap=4;jiggle=2;curveFitting=1;fontFamily=Helvetica;fontSize=20;" vertex="1" parent="obTtGBHouLAVe-Cv3UEX-90">
          <mxGeometry y="160" width="370" height="30" as="geometry">
            <mxRectangle width="259.99999999999955" height="30" as="alternateBounds" />
          </mxGeometry>
        </mxCell>
        <mxCell id="YHIWVxLttBBWoFxB0M0W-605" value="+ RegisterFinalCustomerSale()" style="shape=partialRectangle;connectable=0;fillColor=none;top=0;left=0;bottom=0;right=0;align=left;spacingLeft=6;overflow=hidden;sketch=1;hachureGap=4;jiggle=2;curveFitting=1;fontFamily=Helvetica;fontSize=20;" vertex="1" parent="obTtGBHouLAVe-Cv3UEX-90">
          <mxGeometry y="190" width="370" height="30" as="geometry">
            <mxRectangle width="280" height="30" as="alternateBounds" />
          </mxGeometry>
        </mxCell>
        <mxCell id="YHIWVxLttBBWoFxB0M0W-217" value="Name[OV]" style="swimlane;fontStyle=1;childLayout=stackLayout;horizontal=1;startSize=40;horizontalStack=0;resizeParent=1;resizeParentMax=0;resizeLast=0;collapsible=1;marginBottom=0;align=center;fontSize=20;rounded=0;shadow=1;labelBorderColor=none;sketch=1;hachureGap=4;jiggle=2;fillStyle=cross-hatch;curveFitting=1;strokeColor=#99004D;strokeWidth=2;fontFamily=Helvetica;fillColor=none;gradientColor=none;" vertex="1" parent="obTtGBHouLAVe-Cv3UEX-1">
          <mxGeometry x="150" y="-420" width="250" height="178" as="geometry" />
        </mxCell>
        <mxCell id="YHIWVxLttBBWoFxB0M0W-218" value="+ Value &lt;String&gt;" style="text;strokeColor=none;fillColor=none;spacingLeft=4;spacingRight=4;overflow=hidden;rotatable=0;points=[[0,0.5],[1,0.5]];portConstraint=eastwest;fontSize=25;fontFamily=Helvetica;" vertex="1" parent="YHIWVxLttBBWoFxB0M0W-217">
          <mxGeometry y="40" width="250" height="40" as="geometry" />
        </mxCell>
        <mxCell id="YHIWVxLttBBWoFxB0M0W-219" value="" style="line;strokeWidth=1;rotatable=0;dashed=0;labelPosition=right;align=left;verticalAlign=middle;spacingTop=0;spacingLeft=6;points=[];portConstraint=eastwest;sketch=1;hachureGap=4;jiggle=2;curveFitting=1;strokeColor=#99004D;fontFamily=Architects Daughter;fontSource=https%3A%2F%2Ffonts.googleapis.com%2Fcss%3Ffamily%3DArchitects%2BDaughter;fontSize=20;" vertex="1" parent="YHIWVxLttBBWoFxB0M0W-217">
          <mxGeometry y="80" width="250" height="10" as="geometry" />
        </mxCell>
        <mxCell id="YHIWVxLttBBWoFxB0M0W-220" value="+ MinLength()" style="text;strokeColor=none;fillColor=none;spacingLeft=4;spacingRight=4;overflow=hidden;rotatable=0;points=[[0,0.5],[1,0.5]];portConstraint=eastwest;fontSize=25;fontFamily=Helvetica;" vertex="1" parent="YHIWVxLttBBWoFxB0M0W-217">
          <mxGeometry y="90" width="250" height="44" as="geometry" />
        </mxCell>
        <mxCell id="YHIWVxLttBBWoFxB0M0W-221" value="+ MaxLength()" style="text;strokeColor=none;fillColor=none;spacingLeft=4;spacingRight=4;overflow=hidden;rotatable=0;points=[[0,0.5],[1,0.5]];portConstraint=eastwest;fontSize=25;fontFamily=Helvetica;" vertex="1" parent="YHIWVxLttBBWoFxB0M0W-217">
          <mxGeometry y="134" width="250" height="44" as="geometry" />
        </mxCell>
        <mxCell id="YHIWVxLttBBWoFxB0M0W-223" value="branchId[OV]" style="swimlane;fontStyle=1;childLayout=stackLayout;horizontal=1;startSize=40;horizontalStack=0;resizeParent=1;resizeParentMax=0;resizeLast=0;collapsible=1;marginBottom=0;align=center;fontSize=20;rounded=0;shadow=1;labelBorderColor=none;sketch=1;hachureGap=4;jiggle=2;fillStyle=cross-hatch;curveFitting=1;strokeColor=#99004D;strokeWidth=2;fontFamily=Helvetica;fillColor=none;gradientColor=none;" vertex="1" parent="obTtGBHouLAVe-Cv3UEX-1">
          <mxGeometry x="150" y="-870" width="230" height="120" as="geometry" />
        </mxCell>
        <mxCell id="YHIWVxLttBBWoFxB0M0W-224" value="+ Value &lt;UUID&gt;" style="text;strokeColor=none;fillColor=none;spacingLeft=4;spacingRight=4;overflow=hidden;rotatable=0;points=[[0,0.5],[1,0.5]];portConstraint=eastwest;fontSize=25;fontFamily=Helvetica;" vertex="1" parent="YHIWVxLttBBWoFxB0M0W-223">
          <mxGeometry y="40" width="230" height="30" as="geometry" />
        </mxCell>
        <mxCell id="YHIWVxLttBBWoFxB0M0W-225" value="" style="line;strokeWidth=1;rotatable=0;dashed=0;labelPosition=right;align=left;verticalAlign=middle;spacingTop=0;spacingLeft=6;points=[];portConstraint=eastwest;sketch=1;hachureGap=4;jiggle=2;curveFitting=1;strokeColor=#99004D;fontFamily=Architects Daughter;fontSource=https%3A%2F%2Ffonts.googleapis.com%2Fcss%3Ffamily%3DArchitects%2BDaughter;fontSize=20;" vertex="1" parent="YHIWVxLttBBWoFxB0M0W-223">
          <mxGeometry y="70" width="230" height="10" as="geometry" />
        </mxCell>
        <mxCell id="YHIWVxLttBBWoFxB0M0W-226" value="+ ValidateUUID()" style="text;strokeColor=none;fillColor=none;spacingLeft=4;spacingRight=4;overflow=hidden;rotatable=0;points=[[0,0.5],[1,0.5]];portConstraint=eastwest;fontSize=25;fontFamily=Helvetica;" vertex="1" parent="YHIWVxLttBBWoFxB0M0W-223">
          <mxGeometry y="80" width="230" height="40" as="geometry" />
        </mxCell>
        <mxCell id="YHIWVxLttBBWoFxB0M0W-230" value="" style="group" connectable="0" vertex="1" parent="obTtGBHouLAVe-Cv3UEX-1">
          <mxGeometry x="-320" y="-358" width="299.99999999999955" height="210" as="geometry" />
        </mxCell>
        <mxCell id="YHIWVxLttBBWoFxB0M0W-150" value="Branch [AR]" style="shape=table;startSize=30;container=1;collapsible=1;childLayout=tableLayout;fixedRows=1;rowLines=0;fontStyle=1;align=center;resizeLast=1;hachureGap=4;fontFamily=Helvetica;fontSize=20;fillColor=none;swimlaneFillColor=default;rounded=0;shadow=1;strokeWidth=2;labelBorderColor=none;strokeColor=#0000FF;sketch=1;curveFitting=1;jiggle=2;" vertex="1" parent="YHIWVxLttBBWoFxB0M0W-230">
          <mxGeometry width="299.99999999999955" height="210" as="geometry" />
        </mxCell>
        <mxCell id="YHIWVxLttBBWoFxB0M0W-151" value="" style="shape=tableRow;horizontal=0;startSize=0;swimlaneHead=0;swimlaneBody=0;fillColor=none;collapsible=0;dropTarget=0;points=[[0,0.5],[1,0.5]];portConstraint=eastwest;top=0;left=0;right=0;bottom=1;sketch=1;hachureGap=4;jiggle=2;curveFitting=1;fontFamily=Helvetica;fontSize=20;" vertex="1" parent="YHIWVxLttBBWoFxB0M0W-150">
          <mxGeometry y="30" width="299.99999999999955" height="30" as="geometry" />
        </mxCell>
        <mxCell id="YHIWVxLttBBWoFxB0M0W-152" value="ID" style="shape=partialRectangle;connectable=0;fillColor=none;top=0;left=0;bottom=0;right=0;fontStyle=1;overflow=hidden;sketch=1;hachureGap=4;jiggle=2;curveFitting=1;fontFamily=Helvetica;fontSize=20;" vertex="1" parent="YHIWVxLttBBWoFxB0M0W-151">
          <mxGeometry width="40" height="30" as="geometry">
            <mxRectangle width="40" height="30" as="alternateBounds" />
          </mxGeometry>
        </mxCell>
        <mxCell id="YHIWVxLttBBWoFxB0M0W-153" value="branchId&lt;UUID&gt;" style="shape=partialRectangle;connectable=0;fillColor=none;top=0;left=0;bottom=0;right=0;align=left;spacingLeft=6;fontStyle=5;overflow=hidden;sketch=1;hachureGap=4;jiggle=2;curveFitting=1;fontFamily=Helvetica;fontSize=20;" vertex="1" parent="YHIWVxLttBBWoFxB0M0W-151">
          <mxGeometry x="40" width="259.99999999999955" height="30" as="geometry">
            <mxRectangle width="259.99999999999955" height="30" as="alternateBounds" />
          </mxGeometry>
        </mxCell>
        <mxCell id="YHIWVxLttBBWoFxB0M0W-154" value="" style="shape=tableRow;horizontal=0;startSize=0;swimlaneHead=0;swimlaneBody=0;fillColor=none;collapsible=0;dropTarget=0;points=[[0,0.5],[1,0.5]];portConstraint=eastwest;top=0;left=0;right=0;bottom=0;sketch=1;hachureGap=4;jiggle=2;curveFitting=1;fontFamily=Helvetica;fontSize=20;" vertex="1" parent="YHIWVxLttBBWoFxB0M0W-150">
          <mxGeometry y="60" width="299.99999999999955" height="30" as="geometry" />
        </mxCell>
        <mxCell id="YHIWVxLttBBWoFxB0M0W-155" value="E" style="shape=partialRectangle;connectable=0;fillColor=none;top=0;left=0;bottom=0;right=0;editable=1;overflow=hidden;sketch=1;hachureGap=4;jiggle=2;curveFitting=1;fontFamily=Helvetica;fontSize=20;" vertex="1" parent="YHIWVxLttBBWoFxB0M0W-154">
          <mxGeometry width="40" height="30" as="geometry">
            <mxRectangle width="40" height="30" as="alternateBounds" />
          </mxGeometry>
        </mxCell>
        <mxCell id="YHIWVxLttBBWoFxB0M0W-156" value="Product" style="shape=partialRectangle;connectable=0;fillColor=none;top=0;left=0;bottom=0;right=0;align=left;spacingLeft=6;overflow=hidden;sketch=1;hachureGap=4;jiggle=2;curveFitting=1;fontFamily=Helvetica;fontSize=20;" vertex="1" parent="YHIWVxLttBBWoFxB0M0W-154">
          <mxGeometry x="40" width="259.99999999999955" height="30" as="geometry">
            <mxRectangle width="259.99999999999955" height="30" as="alternateBounds" />
          </mxGeometry>
        </mxCell>
        <mxCell id="YHIWVxLttBBWoFxB0M0W-157" value="" style="shape=tableRow;horizontal=0;startSize=0;swimlaneHead=0;swimlaneBody=0;fillColor=none;collapsible=0;dropTarget=0;points=[[0,0.5],[1,0.5]];portConstraint=eastwest;top=0;left=0;right=0;bottom=0;sketch=1;hachureGap=4;jiggle=2;curveFitting=1;fontFamily=Helvetica;fontSize=20;" vertex="1" parent="YHIWVxLttBBWoFxB0M0W-150">
          <mxGeometry y="90" width="299.99999999999955" height="30" as="geometry" />
        </mxCell>
        <mxCell id="YHIWVxLttBBWoFxB0M0W-158" value="E" style="shape=partialRectangle;connectable=0;fillColor=none;top=0;left=0;bottom=0;right=0;editable=1;overflow=hidden;sketch=1;hachureGap=4;jiggle=2;curveFitting=1;fontFamily=Helvetica;fontSize=20;" vertex="1" parent="YHIWVxLttBBWoFxB0M0W-157">
          <mxGeometry width="40" height="30" as="geometry">
            <mxRectangle width="40" height="30" as="alternateBounds" />
          </mxGeometry>
        </mxCell>
        <mxCell id="YHIWVxLttBBWoFxB0M0W-159" value="User" style="shape=partialRectangle;connectable=0;fillColor=none;top=0;left=0;bottom=0;right=0;align=left;spacingLeft=6;overflow=hidden;sketch=1;hachureGap=4;jiggle=2;curveFitting=1;fontFamily=Helvetica;fontSize=20;" vertex="1" parent="YHIWVxLttBBWoFxB0M0W-157">
          <mxGeometry x="40" width="259.99999999999955" height="30" as="geometry">
            <mxRectangle width="259.99999999999955" height="30" as="alternateBounds" />
          </mxGeometry>
        </mxCell>
        <mxCell id="YHIWVxLttBBWoFxB0M0W-213" value="" style="shape=tableRow;horizontal=0;startSize=0;swimlaneHead=0;swimlaneBody=0;fillColor=none;collapsible=0;dropTarget=0;points=[[0,0.5],[1,0.5]];portConstraint=eastwest;top=0;left=0;right=0;bottom=0;sketch=1;hachureGap=4;jiggle=2;curveFitting=1;fontFamily=Helvetica;fontSize=20;" vertex="1" parent="YHIWVxLttBBWoFxB0M0W-150">
          <mxGeometry y="120" width="299.99999999999955" height="30" as="geometry" />
        </mxCell>
        <mxCell id="YHIWVxLttBBWoFxB0M0W-214" value="OV" style="shape=partialRectangle;connectable=0;fillColor=none;top=0;left=0;bottom=0;right=0;editable=1;overflow=hidden;sketch=1;hachureGap=4;jiggle=2;curveFitting=1;fontFamily=Helvetica;fontSize=20;" vertex="1" parent="YHIWVxLttBBWoFxB0M0W-213">
          <mxGeometry width="40" height="30" as="geometry">
            <mxRectangle width="40" height="30" as="alternateBounds" />
          </mxGeometry>
        </mxCell>
        <mxCell id="YHIWVxLttBBWoFxB0M0W-215" value="+ Location &lt;LocationType&gt;" style="shape=partialRectangle;connectable=0;fillColor=none;top=0;left=0;bottom=0;right=0;align=left;spacingLeft=6;overflow=hidden;sketch=1;hachureGap=4;jiggle=2;curveFitting=1;fontFamily=Helvetica;fontSize=20;" vertex="1" parent="YHIWVxLttBBWoFxB0M0W-213">
          <mxGeometry x="40" width="259.99999999999955" height="30" as="geometry">
            <mxRectangle width="259.99999999999955" height="30" as="alternateBounds" />
          </mxGeometry>
        </mxCell>
        <mxCell id="YHIWVxLttBBWoFxB0M0W-160" value="" style="shape=tableRow;horizontal=0;startSize=0;swimlaneHead=0;swimlaneBody=0;fillColor=none;collapsible=0;dropTarget=0;points=[[0,0.5],[1,0.5]];portConstraint=eastwest;top=0;left=0;right=0;bottom=0;sketch=1;hachureGap=4;jiggle=2;curveFitting=1;fontFamily=Helvetica;fontSize=20;strokeColor=default;swimlaneFillColor=none;" vertex="1" parent="YHIWVxLttBBWoFxB0M0W-150">
          <mxGeometry y="150" width="299.99999999999955" height="30" as="geometry" />
        </mxCell>
        <mxCell id="YHIWVxLttBBWoFxB0M0W-161" value="OV" style="shape=partialRectangle;connectable=0;fillColor=none;top=0;left=0;bottom=0;right=0;editable=1;overflow=hidden;sketch=1;hachureGap=4;jiggle=2;curveFitting=1;fontFamily=Helvetica;fontSize=20;strokeWidth=12;" vertex="1" parent="YHIWVxLttBBWoFxB0M0W-160">
          <mxGeometry width="40" height="30" as="geometry">
            <mxRectangle width="40" height="30" as="alternateBounds" />
          </mxGeometry>
        </mxCell>
        <mxCell id="YHIWVxLttBBWoFxB0M0W-162" value="+ Name &lt;String&gt;" style="shape=partialRectangle;connectable=0;fillColor=none;top=0;left=0;bottom=0;right=0;align=left;spacingLeft=6;overflow=hidden;sketch=1;hachureGap=4;jiggle=2;curveFitting=1;fontFamily=Helvetica;fontSize=20;strokeWidth=12;" vertex="1" parent="YHIWVxLttBBWoFxB0M0W-160">
          <mxGeometry x="40" width="259.99999999999955" height="30" as="geometry">
            <mxRectangle width="259.99999999999955" height="30" as="alternateBounds" />
          </mxGeometry>
        </mxCell>
        <mxCell id="YHIWVxLttBBWoFxB0M0W-175" value="" style="shape=tableRow;horizontal=0;startSize=0;swimlaneHead=0;swimlaneBody=0;fillColor=none;collapsible=0;dropTarget=0;points=[[0,0.5],[1,0.5]];portConstraint=eastwest;top=0;left=0;right=0;bottom=0;sketch=1;hachureGap=4;jiggle=2;curveFitting=1;fontFamily=Helvetica;fontSize=20;strokeColor=default;" vertex="1" parent="YHIWVxLttBBWoFxB0M0W-150">
          <mxGeometry y="180" width="299.99999999999955" height="30" as="geometry" />
        </mxCell>
        <mxCell id="YHIWVxLttBBWoFxB0M0W-176" value="" style="shape=partialRectangle;connectable=0;fillColor=none;top=0;left=0;bottom=0;right=0;editable=1;overflow=hidden;sketch=1;hachureGap=4;jiggle=2;curveFitting=1;fontFamily=Helvetica;fontSize=20;" vertex="1" parent="YHIWVxLttBBWoFxB0M0W-175">
          <mxGeometry width="40" height="30" as="geometry">
            <mxRectangle width="40" height="30" as="alternateBounds" />
          </mxGeometry>
        </mxCell>
        <mxCell id="YHIWVxLttBBWoFxB0M0W-177" value="+ registerBranch()" style="shape=partialRectangle;connectable=0;fillColor=none;top=0;left=0;bottom=0;right=0;align=left;spacingLeft=6;overflow=hidden;sketch=1;hachureGap=4;jiggle=2;curveFitting=1;fontFamily=Helvetica;fontSize=20;" vertex="1" parent="YHIWVxLttBBWoFxB0M0W-175">
          <mxGeometry x="40" width="259.99999999999955" height="30" as="geometry">
            <mxRectangle width="259.99999999999955" height="30" as="alternateBounds" />
          </mxGeometry>
        </mxCell>
        <mxCell id="YHIWVxLttBBWoFxB0M0W-216" value="" style="endArrow=none;html=1;rounded=0;sketch=1;hachureGap=4;jiggle=2;curveFitting=1;fontFamily=Architects Daughter;fontSource=https%3A%2F%2Ffonts.googleapis.com%2Fcss%3Ffamily%3DArchitects%2BDaughter;fontSize=16;entryX=0.993;entryY=0.06;entryDx=0;entryDy=0;entryPerimeter=0;strokeWidth=2;" edge="1" parent="YHIWVxLttBBWoFxB0M0W-230">
          <mxGeometry width="50" height="50" relative="1" as="geometry">
            <mxPoint y="178.10000000000002" as="sourcePoint" />
            <mxPoint x="297.9000000000001" y="179.89999999999998" as="targetPoint" />
          </mxGeometry>
        </mxCell>
        <mxCell id="YHIWVxLttBBWoFxB0M0W-239" value="LocationType" style="swimlane;fontStyle=1;childLayout=stackLayout;horizontal=1;startSize=40;horizontalStack=0;resizeParent=1;resizeParentMax=0;resizeLast=0;collapsible=1;marginBottom=0;align=center;fontSize=20;rounded=0;shadow=1;labelBorderColor=none;sketch=1;hachureGap=4;jiggle=2;fillStyle=cross-hatch;curveFitting=1;strokeColor=#99004D;strokeWidth=2;fontFamily=Helvetica;fillColor=none;gradientColor=none;" vertex="1" parent="obTtGBHouLAVe-Cv3UEX-1">
          <mxGeometry x="150" y="-690" width="230" height="110" as="geometry" />
        </mxCell>
        <mxCell id="YHIWVxLttBBWoFxB0M0W-240" value="+ City&lt;String&gt;" style="text;strokeColor=none;fillColor=none;spacingLeft=4;spacingRight=4;overflow=hidden;rotatable=0;points=[[0,0.5],[1,0.5]];portConstraint=eastwest;fontSize=25;fontFamily=Helvetica;" vertex="1" parent="YHIWVxLttBBWoFxB0M0W-239">
          <mxGeometry y="40" width="230" height="30" as="geometry" />
        </mxCell>
        <mxCell id="YHIWVxLttBBWoFxB0M0W-242" value="+ Country&lt;String&gt;" style="text;strokeColor=none;fillColor=none;spacingLeft=4;spacingRight=4;overflow=hidden;rotatable=0;points=[[0,0.5],[1,0.5]];portConstraint=eastwest;fontSize=25;fontFamily=Helvetica;" vertex="1" parent="YHIWVxLttBBWoFxB0M0W-239">
          <mxGeometry y="70" width="230" height="40" as="geometry" />
        </mxCell>
        <mxCell id="YHIWVxLttBBWoFxB0M0W-296" value="Product [E]" style="shape=table;startSize=30;container=1;collapsible=1;childLayout=tableLayout;fixedRows=1;rowLines=0;fontStyle=1;align=center;resizeLast=1;hachureGap=4;fontFamily=Helvetica;fontSize=20;fillColor=none;swimlaneFillColor=default;rounded=0;shadow=1;strokeWidth=2;labelBorderColor=none;strokeColor=#0000FF;sketch=1;curveFitting=1;jiggle=2;" vertex="1" parent="obTtGBHouLAVe-Cv3UEX-1">
          <mxGeometry x="-761" y="-210" width="321" height="330" as="geometry" />
        </mxCell>
        <mxCell id="YHIWVxLttBBWoFxB0M0W-297" value="" style="shape=tableRow;horizontal=0;startSize=0;swimlaneHead=0;swimlaneBody=0;fillColor=none;collapsible=0;dropTarget=0;points=[[0,0.5],[1,0.5]];portConstraint=eastwest;top=0;left=0;right=0;bottom=1;sketch=1;hachureGap=4;jiggle=2;curveFitting=1;fontFamily=Helvetica;fontSize=20;" vertex="1" parent="YHIWVxLttBBWoFxB0M0W-296">
          <mxGeometry y="30" width="321" height="30" as="geometry" />
        </mxCell>
        <mxCell id="YHIWVxLttBBWoFxB0M0W-298" value="ID" style="shape=partialRectangle;connectable=0;fillColor=none;top=0;left=0;bottom=0;right=0;fontStyle=1;overflow=hidden;sketch=1;hachureGap=4;jiggle=2;curveFitting=1;fontFamily=Helvetica;fontSize=20;" vertex="1" parent="YHIWVxLttBBWoFxB0M0W-297">
          <mxGeometry width="41" height="30" as="geometry">
            <mxRectangle width="41" height="30" as="alternateBounds" />
          </mxGeometry>
        </mxCell>
        <mxCell id="YHIWVxLttBBWoFxB0M0W-299" value="ProductId&lt;UUID&gt;" style="shape=partialRectangle;connectable=0;fillColor=none;top=0;left=0;bottom=0;right=0;align=left;spacingLeft=6;fontStyle=5;overflow=hidden;sketch=1;hachureGap=4;jiggle=2;curveFitting=1;fontFamily=Helvetica;fontSize=20;" vertex="1" parent="YHIWVxLttBBWoFxB0M0W-297">
          <mxGeometry x="41" width="280" height="30" as="geometry">
            <mxRectangle width="280" height="30" as="alternateBounds" />
          </mxGeometry>
        </mxCell>
        <mxCell id="YHIWVxLttBBWoFxB0M0W-306" value="" style="shape=tableRow;horizontal=0;startSize=0;swimlaneHead=0;swimlaneBody=0;fillColor=none;collapsible=0;dropTarget=0;points=[[0,0.5],[1,0.5]];portConstraint=eastwest;top=0;left=0;right=0;bottom=0;sketch=1;hachureGap=4;jiggle=2;curveFitting=1;fontFamily=Helvetica;fontSize=20;" vertex="1" parent="YHIWVxLttBBWoFxB0M0W-296">
          <mxGeometry y="60" width="321" height="30" as="geometry" />
        </mxCell>
        <mxCell id="YHIWVxLttBBWoFxB0M0W-307" value="OV" style="shape=partialRectangle;connectable=0;fillColor=none;top=0;left=0;bottom=0;right=0;editable=1;overflow=hidden;sketch=1;hachureGap=4;jiggle=2;curveFitting=1;fontFamily=Helvetica;fontSize=20;" vertex="1" parent="YHIWVxLttBBWoFxB0M0W-306">
          <mxGeometry width="41" height="30" as="geometry">
            <mxRectangle width="41" height="30" as="alternateBounds" />
          </mxGeometry>
        </mxCell>
        <mxCell id="YHIWVxLttBBWoFxB0M0W-308" value="+ Name &lt;String&gt;" style="shape=partialRectangle;connectable=0;fillColor=none;top=0;left=0;bottom=0;right=0;align=left;spacingLeft=6;overflow=hidden;sketch=1;hachureGap=4;jiggle=2;curveFitting=1;fontFamily=Helvetica;fontSize=20;" vertex="1" parent="YHIWVxLttBBWoFxB0M0W-306">
          <mxGeometry x="41" width="280" height="30" as="geometry">
            <mxRectangle width="280" height="30" as="alternateBounds" />
          </mxGeometry>
        </mxCell>
        <mxCell id="YHIWVxLttBBWoFxB0M0W-309" value="" style="shape=tableRow;horizontal=0;startSize=0;swimlaneHead=0;swimlaneBody=0;fillColor=none;collapsible=0;dropTarget=0;points=[[0,0.5],[1,0.5]];portConstraint=eastwest;top=0;left=0;right=0;bottom=0;sketch=1;hachureGap=4;jiggle=2;curveFitting=1;fontFamily=Helvetica;fontSize=20;" vertex="1" parent="YHIWVxLttBBWoFxB0M0W-296">
          <mxGeometry y="90" width="321" height="30" as="geometry" />
        </mxCell>
        <mxCell id="YHIWVxLttBBWoFxB0M0W-310" value="OV" style="shape=partialRectangle;connectable=0;fillColor=none;top=0;left=0;bottom=0;right=0;editable=1;overflow=hidden;sketch=1;hachureGap=4;jiggle=2;curveFitting=1;fontFamily=Helvetica;fontSize=20;" vertex="1" parent="YHIWVxLttBBWoFxB0M0W-309">
          <mxGeometry width="41" height="30" as="geometry">
            <mxRectangle width="41" height="30" as="alternateBounds" />
          </mxGeometry>
        </mxCell>
        <mxCell id="YHIWVxLttBBWoFxB0M0W-311" value="+ Desciption &lt;String&gt;" style="shape=partialRectangle;connectable=0;fillColor=none;top=0;left=0;bottom=0;right=0;align=left;spacingLeft=6;overflow=hidden;sketch=1;hachureGap=4;jiggle=2;curveFitting=1;fontFamily=Helvetica;fontSize=20;" vertex="1" parent="YHIWVxLttBBWoFxB0M0W-309">
          <mxGeometry x="41" width="280" height="30" as="geometry">
            <mxRectangle width="280" height="30" as="alternateBounds" />
          </mxGeometry>
        </mxCell>
        <mxCell id="YHIWVxLttBBWoFxB0M0W-315" value="" style="shape=tableRow;horizontal=0;startSize=0;swimlaneHead=0;swimlaneBody=0;fillColor=none;collapsible=0;dropTarget=0;points=[[0,0.5],[1,0.5]];portConstraint=eastwest;top=0;left=0;right=0;bottom=0;sketch=1;hachureGap=4;jiggle=2;curveFitting=1;fontFamily=Helvetica;fontSize=20;" vertex="1" parent="YHIWVxLttBBWoFxB0M0W-296">
          <mxGeometry y="120" width="321" height="30" as="geometry" />
        </mxCell>
        <mxCell id="YHIWVxLttBBWoFxB0M0W-316" value="OV" style="shape=partialRectangle;connectable=0;fillColor=none;top=0;left=0;bottom=0;right=0;editable=1;overflow=hidden;sketch=1;hachureGap=4;jiggle=2;curveFitting=1;fontFamily=Helvetica;fontSize=20;" vertex="1" parent="YHIWVxLttBBWoFxB0M0W-315">
          <mxGeometry width="41" height="30" as="geometry">
            <mxRectangle width="41" height="30" as="alternateBounds" />
          </mxGeometry>
        </mxCell>
        <mxCell id="YHIWVxLttBBWoFxB0M0W-317" value="+ Quantity &lt;Number&gt;" style="shape=partialRectangle;connectable=0;fillColor=none;top=0;left=0;bottom=0;right=0;align=left;spacingLeft=6;overflow=hidden;sketch=1;hachureGap=4;jiggle=2;curveFitting=1;fontFamily=Helvetica;fontSize=20;" vertex="1" parent="YHIWVxLttBBWoFxB0M0W-315">
          <mxGeometry x="41" width="280" height="30" as="geometry">
            <mxRectangle width="280" height="30" as="alternateBounds" />
          </mxGeometry>
        </mxCell>
        <mxCell id="YHIWVxLttBBWoFxB0M0W-318" value="" style="shape=tableRow;horizontal=0;startSize=0;swimlaneHead=0;swimlaneBody=0;fillColor=none;collapsible=0;dropTarget=0;points=[[0,0.5],[1,0.5]];portConstraint=eastwest;top=0;left=0;right=0;bottom=0;sketch=1;hachureGap=4;jiggle=2;curveFitting=1;fontFamily=Helvetica;fontSize=20;" vertex="1" parent="YHIWVxLttBBWoFxB0M0W-296">
          <mxGeometry y="150" width="321" height="30" as="geometry" />
        </mxCell>
        <mxCell id="YHIWVxLttBBWoFxB0M0W-319" value="OV" style="shape=partialRectangle;connectable=0;fillColor=none;top=0;left=0;bottom=0;right=0;editable=1;overflow=hidden;sketch=1;hachureGap=4;jiggle=2;curveFitting=1;fontFamily=Helvetica;fontSize=20;" vertex="1" parent="YHIWVxLttBBWoFxB0M0W-318">
          <mxGeometry width="41" height="30" as="geometry">
            <mxRectangle width="41" height="30" as="alternateBounds" />
          </mxGeometry>
        </mxCell>
        <mxCell id="YHIWVxLttBBWoFxB0M0W-320" value="+ Category&lt;String&gt;" style="shape=partialRectangle;connectable=0;fillColor=none;top=0;left=0;bottom=0;right=0;align=left;spacingLeft=6;overflow=hidden;sketch=1;hachureGap=4;jiggle=2;curveFitting=1;fontFamily=Helvetica;fontSize=20;" vertex="1" parent="YHIWVxLttBBWoFxB0M0W-318">
          <mxGeometry x="41" width="280" height="30" as="geometry">
            <mxRectangle width="280" height="30" as="alternateBounds" />
          </mxGeometry>
        </mxCell>
        <mxCell id="YHIWVxLttBBWoFxB0M0W-478" value="" style="shape=tableRow;horizontal=0;startSize=0;swimlaneHead=0;swimlaneBody=0;fillColor=none;collapsible=0;dropTarget=0;points=[[0,0.5],[1,0.5]];portConstraint=eastwest;top=0;left=0;right=0;bottom=0;sketch=1;hachureGap=4;jiggle=2;curveFitting=1;fontFamily=Helvetica;fontSize=20;" vertex="1" parent="YHIWVxLttBBWoFxB0M0W-296">
          <mxGeometry y="180" width="321" height="30" as="geometry" />
        </mxCell>
        <mxCell id="YHIWVxLttBBWoFxB0M0W-479" value="OV" style="shape=partialRectangle;connectable=0;fillColor=none;top=0;left=0;bottom=0;right=0;editable=1;overflow=hidden;sketch=1;hachureGap=4;jiggle=2;curveFitting=1;fontFamily=Helvetica;fontSize=20;" vertex="1" parent="YHIWVxLttBBWoFxB0M0W-478">
          <mxGeometry width="41" height="30" as="geometry">
            <mxRectangle width="41" height="30" as="alternateBounds" />
          </mxGeometry>
        </mxCell>
        <mxCell id="YHIWVxLttBBWoFxB0M0W-480" value="+ Price &lt;Number&gt;" style="shape=partialRectangle;connectable=0;fillColor=none;top=0;left=0;bottom=0;right=0;align=left;spacingLeft=6;overflow=hidden;sketch=1;hachureGap=4;jiggle=2;curveFitting=1;fontFamily=Helvetica;fontSize=20;" vertex="1" parent="YHIWVxLttBBWoFxB0M0W-478">
          <mxGeometry x="41" width="280" height="30" as="geometry">
            <mxRectangle width="280" height="30" as="alternateBounds" />
          </mxGeometry>
        </mxCell>
        <mxCell id="YHIWVxLttBBWoFxB0M0W-321" value="" style="shape=tableRow;horizontal=0;startSize=0;swimlaneHead=0;swimlaneBody=0;fillColor=none;collapsible=0;dropTarget=0;points=[[0,0.5],[1,0.5]];portConstraint=eastwest;top=0;left=0;right=0;bottom=0;sketch=1;hachureGap=4;jiggle=2;curveFitting=1;fontFamily=Helvetica;fontSize=20;" vertex="1" parent="YHIWVxLttBBWoFxB0M0W-296">
          <mxGeometry y="210" width="321" height="30" as="geometry" />
        </mxCell>
        <mxCell id="YHIWVxLttBBWoFxB0M0W-322" value="" style="shape=partialRectangle;connectable=0;fillColor=none;top=0;left=0;bottom=0;right=0;editable=1;overflow=hidden;sketch=1;hachureGap=4;jiggle=2;curveFitting=1;fontFamily=Helvetica;fontSize=20;" vertex="1" parent="YHIWVxLttBBWoFxB0M0W-321">
          <mxGeometry width="41" height="30" as="geometry">
            <mxRectangle width="41" height="30" as="alternateBounds" />
          </mxGeometry>
        </mxCell>
        <mxCell id="YHIWVxLttBBWoFxB0M0W-323" value="+ RegisterProduct()" style="shape=partialRectangle;connectable=0;fillColor=none;top=0;left=0;bottom=0;right=0;align=left;spacingLeft=6;overflow=hidden;sketch=1;hachureGap=4;jiggle=2;curveFitting=1;fontFamily=Helvetica;fontSize=20;" vertex="1" parent="YHIWVxLttBBWoFxB0M0W-321">
          <mxGeometry x="41" width="280" height="30" as="geometry">
            <mxRectangle width="280" height="30" as="alternateBounds" />
          </mxGeometry>
        </mxCell>
        <mxCell id="YHIWVxLttBBWoFxB0M0W-324" value="" style="shape=tableRow;horizontal=0;startSize=0;swimlaneHead=0;swimlaneBody=0;fillColor=none;collapsible=0;dropTarget=0;points=[[0,0.5],[1,0.5]];portConstraint=eastwest;top=0;left=0;right=0;bottom=0;sketch=1;hachureGap=4;jiggle=2;curveFitting=1;fontFamily=Helvetica;fontSize=20;" vertex="1" parent="YHIWVxLttBBWoFxB0M0W-296">
          <mxGeometry y="240" width="321" height="30" as="geometry" />
        </mxCell>
        <mxCell id="YHIWVxLttBBWoFxB0M0W-325" value="" style="shape=partialRectangle;connectable=0;fillColor=none;top=0;left=0;bottom=0;right=0;editable=1;overflow=hidden;sketch=1;hachureGap=4;jiggle=2;curveFitting=1;fontFamily=Helvetica;fontSize=20;" vertex="1" parent="YHIWVxLttBBWoFxB0M0W-324">
          <mxGeometry width="41" height="30" as="geometry">
            <mxRectangle width="41" height="30" as="alternateBounds" />
          </mxGeometry>
        </mxCell>
        <mxCell id="YHIWVxLttBBWoFxB0M0W-326" value="+ RegisterProductQuantity()" style="shape=partialRectangle;connectable=0;fillColor=none;top=0;left=0;bottom=0;right=0;align=left;spacingLeft=6;overflow=hidden;sketch=1;hachureGap=4;jiggle=2;curveFitting=1;fontFamily=Helvetica;fontSize=20;" vertex="1" parent="YHIWVxLttBBWoFxB0M0W-324">
          <mxGeometry x="41" width="280" height="30" as="geometry">
            <mxRectangle width="280" height="30" as="alternateBounds" />
          </mxGeometry>
        </mxCell>
        <mxCell id="YHIWVxLttBBWoFxB0M0W-327" value="" style="shape=tableRow;horizontal=0;startSize=0;swimlaneHead=0;swimlaneBody=0;fillColor=none;collapsible=0;dropTarget=0;points=[[0,0.5],[1,0.5]];portConstraint=eastwest;top=0;left=0;right=0;bottom=0;sketch=1;hachureGap=4;jiggle=2;curveFitting=1;fontFamily=Helvetica;fontSize=20;" vertex="1" parent="YHIWVxLttBBWoFxB0M0W-296">
          <mxGeometry y="270" width="321" height="30" as="geometry" />
        </mxCell>
        <mxCell id="YHIWVxLttBBWoFxB0M0W-328" value="" style="shape=partialRectangle;connectable=0;fillColor=none;top=0;left=0;bottom=0;right=0;editable=1;overflow=hidden;sketch=1;hachureGap=4;jiggle=2;curveFitting=1;fontFamily=Helvetica;fontSize=20;" vertex="1" parent="YHIWVxLttBBWoFxB0M0W-327">
          <mxGeometry width="41" height="30" as="geometry">
            <mxRectangle width="41" height="30" as="alternateBounds" />
          </mxGeometry>
        </mxCell>
        <mxCell id="YHIWVxLttBBWoFxB0M0W-329" value="+ registerFinalCustomerSale()" style="shape=partialRectangle;connectable=0;fillColor=none;top=0;left=0;bottom=0;right=0;align=left;spacingLeft=6;overflow=hidden;sketch=1;hachureGap=4;jiggle=2;curveFitting=1;fontFamily=Helvetica;fontSize=20;" vertex="1" parent="YHIWVxLttBBWoFxB0M0W-327">
          <mxGeometry x="41" width="280" height="30" as="geometry">
            <mxRectangle width="280" height="30" as="alternateBounds" />
          </mxGeometry>
        </mxCell>
        <mxCell id="YHIWVxLttBBWoFxB0M0W-330" value="" style="shape=tableRow;horizontal=0;startSize=0;swimlaneHead=0;swimlaneBody=0;fillColor=none;collapsible=0;dropTarget=0;points=[[0,0.5],[1,0.5]];portConstraint=eastwest;top=0;left=0;right=0;bottom=0;sketch=1;hachureGap=4;jiggle=2;curveFitting=1;fontFamily=Helvetica;fontSize=20;" vertex="1" parent="YHIWVxLttBBWoFxB0M0W-296">
          <mxGeometry y="300" width="321" height="30" as="geometry" />
        </mxCell>
        <mxCell id="YHIWVxLttBBWoFxB0M0W-331" value="" style="shape=partialRectangle;connectable=0;fillColor=none;top=0;left=0;bottom=0;right=0;editable=1;overflow=hidden;sketch=1;hachureGap=4;jiggle=2;curveFitting=1;fontFamily=Helvetica;fontSize=20;" vertex="1" parent="YHIWVxLttBBWoFxB0M0W-330">
          <mxGeometry width="41" height="30" as="geometry">
            <mxRectangle width="41" height="30" as="alternateBounds" />
          </mxGeometry>
        </mxCell>
        <mxCell id="YHIWVxLttBBWoFxB0M0W-332" value="+ registerResellerSale()" style="shape=partialRectangle;connectable=0;fillColor=none;top=0;left=0;bottom=0;right=0;align=left;spacingLeft=6;overflow=hidden;sketch=1;hachureGap=4;jiggle=2;curveFitting=1;fontFamily=Helvetica;fontSize=20;" vertex="1" parent="YHIWVxLttBBWoFxB0M0W-330">
          <mxGeometry x="41" width="280" height="30" as="geometry">
            <mxRectangle width="280" height="30" as="alternateBounds" />
          </mxGeometry>
        </mxCell>
        <mxCell id="YHIWVxLttBBWoFxB0M0W-350" value="Name[OV]" style="swimlane;fontStyle=1;childLayout=stackLayout;horizontal=1;startSize=40;horizontalStack=0;resizeParent=1;resizeParentMax=0;resizeLast=0;collapsible=1;marginBottom=0;align=center;fontSize=20;rounded=0;shadow=1;labelBorderColor=none;sketch=1;hachureGap=4;jiggle=2;fillStyle=cross-hatch;curveFitting=1;strokeColor=#99004D;strokeWidth=2;fontFamily=Helvetica;fillColor=none;gradientColor=none;" vertex="1" parent="obTtGBHouLAVe-Cv3UEX-1">
          <mxGeometry x="-1120" y="-500" width="250" height="178" as="geometry" />
        </mxCell>
        <mxCell id="YHIWVxLttBBWoFxB0M0W-351" value="+ Value &lt;String&gt;" style="text;strokeColor=none;fillColor=none;spacingLeft=4;spacingRight=4;overflow=hidden;rotatable=0;points=[[0,0.5],[1,0.5]];portConstraint=eastwest;fontSize=25;fontFamily=Helvetica;" vertex="1" parent="YHIWVxLttBBWoFxB0M0W-350">
          <mxGeometry y="40" width="250" height="40" as="geometry" />
        </mxCell>
        <mxCell id="YHIWVxLttBBWoFxB0M0W-352" value="" style="line;strokeWidth=1;rotatable=0;dashed=0;labelPosition=right;align=left;verticalAlign=middle;spacingTop=0;spacingLeft=6;points=[];portConstraint=eastwest;sketch=1;hachureGap=4;jiggle=2;curveFitting=1;strokeColor=#99004D;fontFamily=Architects Daughter;fontSource=https%3A%2F%2Ffonts.googleapis.com%2Fcss%3Ffamily%3DArchitects%2BDaughter;fontSize=20;" vertex="1" parent="YHIWVxLttBBWoFxB0M0W-350">
          <mxGeometry y="80" width="250" height="10" as="geometry" />
        </mxCell>
        <mxCell id="YHIWVxLttBBWoFxB0M0W-353" value="+ MinLength()" style="text;strokeColor=none;fillColor=none;spacingLeft=4;spacingRight=4;overflow=hidden;rotatable=0;points=[[0,0.5],[1,0.5]];portConstraint=eastwest;fontSize=25;fontFamily=Helvetica;" vertex="1" parent="YHIWVxLttBBWoFxB0M0W-350">
          <mxGeometry y="90" width="250" height="44" as="geometry" />
        </mxCell>
        <mxCell id="YHIWVxLttBBWoFxB0M0W-354" value="+ MaxLength()" style="text;strokeColor=none;fillColor=none;spacingLeft=4;spacingRight=4;overflow=hidden;rotatable=0;points=[[0,0.5],[1,0.5]];portConstraint=eastwest;fontSize=25;fontFamily=Helvetica;" vertex="1" parent="YHIWVxLttBBWoFxB0M0W-350">
          <mxGeometry y="134" width="250" height="44" as="geometry" />
        </mxCell>
        <mxCell id="YHIWVxLttBBWoFxB0M0W-357" value="Description[OV]" style="swimlane;fontStyle=1;childLayout=stackLayout;horizontal=1;startSize=40;horizontalStack=0;resizeParent=1;resizeParentMax=0;resizeLast=0;collapsible=1;marginBottom=0;align=center;fontSize=20;rounded=0;shadow=1;labelBorderColor=none;sketch=1;hachureGap=4;jiggle=2;fillStyle=cross-hatch;curveFitting=1;strokeColor=#99004D;strokeWidth=2;fontFamily=Helvetica;fillColor=none;gradientColor=none;" vertex="1" parent="obTtGBHouLAVe-Cv3UEX-1">
          <mxGeometry x="-1120" y="-226" width="250" height="178" as="geometry" />
        </mxCell>
        <mxCell id="YHIWVxLttBBWoFxB0M0W-358" value="+ Value &lt;String&gt;" style="text;strokeColor=none;fillColor=none;spacingLeft=4;spacingRight=4;overflow=hidden;rotatable=0;points=[[0,0.5],[1,0.5]];portConstraint=eastwest;fontSize=25;fontFamily=Helvetica;" vertex="1" parent="YHIWVxLttBBWoFxB0M0W-357">
          <mxGeometry y="40" width="250" height="40" as="geometry" />
        </mxCell>
        <mxCell id="YHIWVxLttBBWoFxB0M0W-359" value="" style="line;strokeWidth=1;rotatable=0;dashed=0;labelPosition=right;align=left;verticalAlign=middle;spacingTop=0;spacingLeft=6;points=[];portConstraint=eastwest;sketch=1;hachureGap=4;jiggle=2;curveFitting=1;strokeColor=#99004D;fontFamily=Architects Daughter;fontSource=https%3A%2F%2Ffonts.googleapis.com%2Fcss%3Ffamily%3DArchitects%2BDaughter;fontSize=20;" vertex="1" parent="YHIWVxLttBBWoFxB0M0W-357">
          <mxGeometry y="80" width="250" height="10" as="geometry" />
        </mxCell>
        <mxCell id="YHIWVxLttBBWoFxB0M0W-360" value="+ MinLength()" style="text;strokeColor=none;fillColor=none;spacingLeft=4;spacingRight=4;overflow=hidden;rotatable=0;points=[[0,0.5],[1,0.5]];portConstraint=eastwest;fontSize=25;fontFamily=Helvetica;" vertex="1" parent="YHIWVxLttBBWoFxB0M0W-357">
          <mxGeometry y="90" width="250" height="44" as="geometry" />
        </mxCell>
        <mxCell id="YHIWVxLttBBWoFxB0M0W-361" value="+ MaxLength()" style="text;strokeColor=none;fillColor=none;spacingLeft=4;spacingRight=4;overflow=hidden;rotatable=0;points=[[0,0.5],[1,0.5]];portConstraint=eastwest;fontSize=25;fontFamily=Helvetica;" vertex="1" parent="YHIWVxLttBBWoFxB0M0W-357">
          <mxGeometry y="134" width="250" height="44" as="geometry" />
        </mxCell>
        <mxCell id="YHIWVxLttBBWoFxB0M0W-371" value="" style="line;strokeWidth=1;rotatable=0;dashed=0;labelPosition=right;align=left;verticalAlign=middle;spacingTop=0;spacingLeft=6;points=[];portConstraint=eastwest;sketch=1;hachureGap=4;jiggle=2;curveFitting=1;strokeColor=#0000FF;fontFamily=Architects Daughter;fontSource=https%3A%2F%2Ffonts.googleapis.com%2Fcss%3Ffamily%3DArchitects%2BDaughter;fontSize=20;" vertex="1" parent="obTtGBHouLAVe-Cv3UEX-1">
          <mxGeometry x="-761" width="321" height="10" as="geometry" />
        </mxCell>
        <mxCell id="YHIWVxLttBBWoFxB0M0W-372" value="ProductId[OV]" style="swimlane;fontStyle=1;childLayout=stackLayout;horizontal=1;startSize=40;horizontalStack=0;resizeParent=1;resizeParentMax=0;resizeLast=0;collapsible=1;marginBottom=0;align=center;fontSize=20;rounded=0;shadow=1;labelBorderColor=none;sketch=1;hachureGap=4;jiggle=2;fillStyle=cross-hatch;curveFitting=1;strokeColor=#99004D;strokeWidth=2;fontFamily=Helvetica;fillColor=none;gradientColor=none;" vertex="1" parent="obTtGBHouLAVe-Cv3UEX-1">
          <mxGeometry x="-1120" y="-660" width="230" height="120" as="geometry" />
        </mxCell>
        <mxCell id="YHIWVxLttBBWoFxB0M0W-373" value="+ Value &lt;UUID&gt;" style="text;strokeColor=none;fillColor=none;spacingLeft=4;spacingRight=4;overflow=hidden;rotatable=0;points=[[0,0.5],[1,0.5]];portConstraint=eastwest;fontSize=25;fontFamily=Helvetica;" vertex="1" parent="YHIWVxLttBBWoFxB0M0W-372">
          <mxGeometry y="40" width="230" height="30" as="geometry" />
        </mxCell>
        <mxCell id="YHIWVxLttBBWoFxB0M0W-374" value="" style="line;strokeWidth=1;rotatable=0;dashed=0;labelPosition=right;align=left;verticalAlign=middle;spacingTop=0;spacingLeft=6;points=[];portConstraint=eastwest;sketch=1;hachureGap=4;jiggle=2;curveFitting=1;strokeColor=#99004D;fontFamily=Architects Daughter;fontSource=https%3A%2F%2Ffonts.googleapis.com%2Fcss%3Ffamily%3DArchitects%2BDaughter;fontSize=20;" vertex="1" parent="YHIWVxLttBBWoFxB0M0W-372">
          <mxGeometry y="70" width="230" height="10" as="geometry" />
        </mxCell>
        <mxCell id="YHIWVxLttBBWoFxB0M0W-375" value="+ ValidateUUID()" style="text;strokeColor=none;fillColor=none;spacingLeft=4;spacingRight=4;overflow=hidden;rotatable=0;points=[[0,0.5],[1,0.5]];portConstraint=eastwest;fontSize=25;fontFamily=Helvetica;" vertex="1" parent="YHIWVxLttBBWoFxB0M0W-372">
          <mxGeometry y="80" width="230" height="40" as="geometry" />
        </mxCell>
        <mxCell id="YHIWVxLttBBWoFxB0M0W-376" style="edgeStyle=orthogonalEdgeStyle;rounded=1;sketch=1;hachureGap=4;jiggle=2;curveFitting=1;orthogonalLoop=1;jettySize=auto;html=1;entryX=1.009;entryY=1.09;entryDx=0;entryDy=0;entryPerimeter=0;strokeColor=default;strokeWidth=2;fontFamily=Architects Daughter;fontSource=https%3A%2F%2Ffonts.googleapis.com%2Fcss%3Ffamily%3DArchitects%2BDaughter;fontSize=20;startArrow=none;startFill=0;endArrow=blockThin;endFill=1;exitX=0;exitY=0.5;exitDx=0;exitDy=0;" edge="1" parent="obTtGBHouLAVe-Cv3UEX-1" source="YHIWVxLttBBWoFxB0M0W-297" target="YHIWVxLttBBWoFxB0M0W-373">
          <mxGeometry relative="1" as="geometry">
            <mxPoint x="-760" y="245.00000000000023" as="sourcePoint" />
            <Array as="points">
              <mxPoint x="-790" y="-165" />
              <mxPoint x="-790" y="-587" />
            </Array>
          </mxGeometry>
        </mxCell>
        <mxCell id="YHIWVxLttBBWoFxB0M0W-377" value="Price[OV]" style="swimlane;fontStyle=1;childLayout=stackLayout;horizontal=1;startSize=40;horizontalStack=0;resizeParent=1;resizeParentMax=0;resizeLast=0;collapsible=1;marginBottom=0;align=center;fontSize=20;rounded=0;shadow=1;labelBorderColor=none;sketch=1;hachureGap=4;jiggle=2;fillStyle=cross-hatch;curveFitting=1;strokeColor=#99004D;strokeWidth=2;fontFamily=Helvetica;fillColor=none;gradientColor=none;" vertex="1" parent="obTtGBHouLAVe-Cv3UEX-1">
          <mxGeometry x="-1140" y="480" width="250" height="134" as="geometry" />
        </mxCell>
        <mxCell id="YHIWVxLttBBWoFxB0M0W-378" value="+ Value &lt;Number&gt;" style="text;strokeColor=none;fillColor=none;spacingLeft=4;spacingRight=4;overflow=hidden;rotatable=0;points=[[0,0.5],[1,0.5]];portConstraint=eastwest;fontSize=25;fontFamily=Helvetica;" vertex="1" parent="YHIWVxLttBBWoFxB0M0W-377">
          <mxGeometry y="40" width="250" height="40" as="geometry" />
        </mxCell>
        <mxCell id="YHIWVxLttBBWoFxB0M0W-379" value="" style="line;strokeWidth=1;rotatable=0;dashed=0;labelPosition=right;align=left;verticalAlign=middle;spacingTop=0;spacingLeft=6;points=[];portConstraint=eastwest;sketch=1;hachureGap=4;jiggle=2;curveFitting=1;strokeColor=#99004D;fontFamily=Architects Daughter;fontSource=https%3A%2F%2Ffonts.googleapis.com%2Fcss%3Ffamily%3DArchitects%2BDaughter;fontSize=20;" vertex="1" parent="YHIWVxLttBBWoFxB0M0W-377">
          <mxGeometry y="80" width="250" height="10" as="geometry" />
        </mxCell>
        <mxCell id="YHIWVxLttBBWoFxB0M0W-381" value="+ IsPositiveNumber()" style="text;strokeColor=none;fillColor=none;spacingLeft=4;spacingRight=4;overflow=hidden;rotatable=0;points=[[0,0.5],[1,0.5]];portConstraint=eastwest;fontSize=25;fontFamily=Helvetica;" vertex="1" parent="YHIWVxLttBBWoFxB0M0W-377">
          <mxGeometry y="90" width="250" height="44" as="geometry" />
        </mxCell>
        <mxCell id="YHIWVxLttBBWoFxB0M0W-485" value="User[E]" style="shape=table;startSize=30;container=1;collapsible=1;childLayout=tableLayout;fixedRows=1;rowLines=0;fontStyle=1;align=center;resizeLast=1;hachureGap=4;fontFamily=Helvetica;fontSize=20;fillColor=none;swimlaneFillColor=default;rounded=0;shadow=1;strokeWidth=2;labelBorderColor=none;strokeColor=#009900;sketch=1;curveFitting=1;jiggle=2;" vertex="1" parent="obTtGBHouLAVe-Cv3UEX-1">
          <mxGeometry x="-320" y="-20" width="280" height="210" as="geometry" />
        </mxCell>
        <mxCell id="YHIWVxLttBBWoFxB0M0W-486" value="" style="shape=tableRow;horizontal=0;startSize=0;swimlaneHead=0;swimlaneBody=0;fillColor=none;collapsible=0;dropTarget=0;points=[[0,0.5],[1,0.5]];portConstraint=eastwest;top=0;left=0;right=0;bottom=1;sketch=1;hachureGap=4;jiggle=2;curveFitting=1;fontFamily=Helvetica;fontSize=20;" vertex="1" parent="YHIWVxLttBBWoFxB0M0W-485">
          <mxGeometry y="30" width="280" height="30" as="geometry" />
        </mxCell>
        <mxCell id="YHIWVxLttBBWoFxB0M0W-487" value="ID" style="shape=partialRectangle;connectable=0;fillColor=none;top=0;left=0;bottom=0;right=0;fontStyle=1;overflow=hidden;sketch=1;hachureGap=4;jiggle=2;curveFitting=1;fontFamily=Helvetica;fontSize=20;" vertex="1" parent="YHIWVxLttBBWoFxB0M0W-486">
          <mxGeometry width="40" height="30" as="geometry">
            <mxRectangle width="40" height="30" as="alternateBounds" />
          </mxGeometry>
        </mxCell>
        <mxCell id="YHIWVxLttBBWoFxB0M0W-488" value="UserId&lt;UUID&gt;" style="shape=partialRectangle;connectable=0;fillColor=none;top=0;left=0;bottom=0;right=0;align=left;spacingLeft=6;fontStyle=5;overflow=hidden;sketch=1;hachureGap=4;jiggle=2;curveFitting=1;fontFamily=Helvetica;fontSize=20;" vertex="1" parent="YHIWVxLttBBWoFxB0M0W-486">
          <mxGeometry x="40" width="240" height="30" as="geometry">
            <mxRectangle width="240" height="30" as="alternateBounds" />
          </mxGeometry>
        </mxCell>
        <mxCell id="YHIWVxLttBBWoFxB0M0W-489" value="" style="shape=tableRow;horizontal=0;startSize=0;swimlaneHead=0;swimlaneBody=0;fillColor=none;collapsible=0;dropTarget=0;points=[[0,0.5],[1,0.5]];portConstraint=eastwest;top=0;left=0;right=0;bottom=0;sketch=1;hachureGap=4;jiggle=2;curveFitting=1;fontFamily=Helvetica;fontSize=20;" vertex="1" parent="YHIWVxLttBBWoFxB0M0W-485">
          <mxGeometry y="60" width="280" height="30" as="geometry" />
        </mxCell>
        <mxCell id="YHIWVxLttBBWoFxB0M0W-490" value="OV" style="shape=partialRectangle;connectable=0;fillColor=none;top=0;left=0;bottom=0;right=0;editable=1;overflow=hidden;sketch=1;hachureGap=4;jiggle=2;curveFitting=1;fontFamily=Helvetica;fontSize=20;" vertex="1" parent="YHIWVxLttBBWoFxB0M0W-489">
          <mxGeometry width="40" height="30" as="geometry">
            <mxRectangle width="40" height="30" as="alternateBounds" />
          </mxGeometry>
        </mxCell>
        <mxCell id="YHIWVxLttBBWoFxB0M0W-491" value="+ Name &lt;FullNameType&gt;" style="shape=partialRectangle;connectable=0;fillColor=none;top=0;left=0;bottom=0;right=0;align=left;spacingLeft=6;overflow=hidden;sketch=1;hachureGap=4;jiggle=2;curveFitting=1;fontFamily=Helvetica;fontSize=20;" vertex="1" parent="YHIWVxLttBBWoFxB0M0W-489">
          <mxGeometry x="40" width="240" height="30" as="geometry">
            <mxRectangle width="240" height="30" as="alternateBounds" />
          </mxGeometry>
        </mxCell>
        <mxCell id="YHIWVxLttBBWoFxB0M0W-492" value="" style="shape=tableRow;horizontal=0;startSize=0;swimlaneHead=0;swimlaneBody=0;fillColor=none;collapsible=0;dropTarget=0;points=[[0,0.5],[1,0.5]];portConstraint=eastwest;top=0;left=0;right=0;bottom=0;sketch=1;hachureGap=4;jiggle=2;curveFitting=1;fontFamily=Helvetica;fontSize=20;" vertex="1" parent="YHIWVxLttBBWoFxB0M0W-485">
          <mxGeometry y="90" width="280" height="30" as="geometry" />
        </mxCell>
        <mxCell id="YHIWVxLttBBWoFxB0M0W-493" value="OV" style="shape=partialRectangle;connectable=0;fillColor=none;top=0;left=0;bottom=0;right=0;editable=1;overflow=hidden;sketch=1;hachureGap=4;jiggle=2;curveFitting=1;fontFamily=Helvetica;fontSize=20;" vertex="1" parent="YHIWVxLttBBWoFxB0M0W-492">
          <mxGeometry width="40" height="30" as="geometry">
            <mxRectangle width="40" height="30" as="alternateBounds" />
          </mxGeometry>
        </mxCell>
        <mxCell id="YHIWVxLttBBWoFxB0M0W-494" value="+ Password&lt;String&gt;" style="shape=partialRectangle;connectable=0;fillColor=none;top=0;left=0;bottom=0;right=0;align=left;spacingLeft=6;overflow=hidden;sketch=1;hachureGap=4;jiggle=2;curveFitting=1;fontFamily=Helvetica;fontSize=20;" vertex="1" parent="YHIWVxLttBBWoFxB0M0W-492">
          <mxGeometry x="40" width="240" height="30" as="geometry">
            <mxRectangle width="240" height="30" as="alternateBounds" />
          </mxGeometry>
        </mxCell>
        <mxCell id="YHIWVxLttBBWoFxB0M0W-495" value="" style="shape=tableRow;horizontal=0;startSize=0;swimlaneHead=0;swimlaneBody=0;fillColor=none;collapsible=0;dropTarget=0;points=[[0,0.5],[1,0.5]];portConstraint=eastwest;top=0;left=0;right=0;bottom=0;sketch=1;hachureGap=4;jiggle=2;curveFitting=1;fontFamily=Helvetica;fontSize=20;" vertex="1" parent="YHIWVxLttBBWoFxB0M0W-485">
          <mxGeometry y="120" width="280" height="30" as="geometry" />
        </mxCell>
        <mxCell id="YHIWVxLttBBWoFxB0M0W-496" value="OV" style="shape=partialRectangle;connectable=0;fillColor=none;top=0;left=0;bottom=0;right=0;editable=1;overflow=hidden;sketch=1;hachureGap=4;jiggle=2;curveFitting=1;fontFamily=Helvetica;fontSize=20;" vertex="1" parent="YHIWVxLttBBWoFxB0M0W-495">
          <mxGeometry width="40" height="30" as="geometry">
            <mxRectangle width="40" height="30" as="alternateBounds" />
          </mxGeometry>
        </mxCell>
        <mxCell id="YHIWVxLttBBWoFxB0M0W-497" value="+ Email&lt;String&gt;" style="shape=partialRectangle;connectable=0;fillColor=none;top=0;left=0;bottom=0;right=0;align=left;spacingLeft=6;overflow=hidden;sketch=1;hachureGap=4;jiggle=2;curveFitting=1;fontFamily=Helvetica;fontSize=20;" vertex="1" parent="YHIWVxLttBBWoFxB0M0W-495">
          <mxGeometry x="40" width="240" height="30" as="geometry">
            <mxRectangle width="240" height="30" as="alternateBounds" />
          </mxGeometry>
        </mxCell>
        <mxCell id="YHIWVxLttBBWoFxB0M0W-534" value="" style="shape=tableRow;horizontal=0;startSize=0;swimlaneHead=0;swimlaneBody=0;fillColor=none;collapsible=0;dropTarget=0;points=[[0,0.5],[1,0.5]];portConstraint=eastwest;top=0;left=0;right=0;bottom=0;sketch=1;hachureGap=4;jiggle=2;curveFitting=1;fontFamily=Helvetica;fontSize=20;" vertex="1" parent="YHIWVxLttBBWoFxB0M0W-485">
          <mxGeometry y="150" width="280" height="30" as="geometry" />
        </mxCell>
        <mxCell id="YHIWVxLttBBWoFxB0M0W-535" value="OV" style="shape=partialRectangle;connectable=0;fillColor=none;top=0;left=0;bottom=0;right=0;editable=1;overflow=hidden;sketch=1;hachureGap=4;jiggle=2;curveFitting=1;fontFamily=Helvetica;fontSize=20;" vertex="1" parent="YHIWVxLttBBWoFxB0M0W-534">
          <mxGeometry width="40" height="30" as="geometry">
            <mxRectangle width="40" height="30" as="alternateBounds" />
          </mxGeometry>
        </mxCell>
        <mxCell id="YHIWVxLttBBWoFxB0M0W-536" value="+ Role&lt;String&gt;" style="shape=partialRectangle;connectable=0;fillColor=none;top=0;left=0;bottom=0;right=0;align=left;spacingLeft=6;overflow=hidden;sketch=1;hachureGap=4;jiggle=2;curveFitting=1;fontFamily=Helvetica;fontSize=20;" vertex="1" parent="YHIWVxLttBBWoFxB0M0W-534">
          <mxGeometry x="40" width="240" height="30" as="geometry">
            <mxRectangle width="240" height="30" as="alternateBounds" />
          </mxGeometry>
        </mxCell>
        <mxCell id="YHIWVxLttBBWoFxB0M0W-498" value="" style="shape=tableRow;horizontal=0;startSize=0;swimlaneHead=0;swimlaneBody=0;fillColor=none;collapsible=0;dropTarget=0;points=[[0,0.5],[1,0.5]];portConstraint=eastwest;top=0;left=0;right=0;bottom=0;sketch=1;hachureGap=4;jiggle=2;curveFitting=1;fontFamily=Helvetica;fontSize=20;" vertex="1" parent="YHIWVxLttBBWoFxB0M0W-485">
          <mxGeometry y="180" width="280" height="30" as="geometry" />
        </mxCell>
        <mxCell id="YHIWVxLttBBWoFxB0M0W-499" value="" style="shape=partialRectangle;connectable=0;fillColor=none;top=0;left=0;bottom=0;right=0;editable=1;overflow=hidden;sketch=1;hachureGap=4;jiggle=2;curveFitting=1;fontFamily=Helvetica;fontSize=20;" vertex="1" parent="YHIWVxLttBBWoFxB0M0W-498">
          <mxGeometry width="40" height="30" as="geometry">
            <mxRectangle width="40" height="30" as="alternateBounds" />
          </mxGeometry>
        </mxCell>
        <mxCell id="YHIWVxLttBBWoFxB0M0W-500" value="+ RegisterUser()" style="shape=partialRectangle;connectable=0;fillColor=none;top=0;left=0;bottom=0;right=0;align=left;spacingLeft=6;overflow=hidden;sketch=1;hachureGap=4;jiggle=2;curveFitting=1;fontFamily=Helvetica;fontSize=20;" vertex="1" parent="YHIWVxLttBBWoFxB0M0W-498">
          <mxGeometry x="40" width="240" height="30" as="geometry">
            <mxRectangle width="240" height="30" as="alternateBounds" />
          </mxGeometry>
        </mxCell>
        <mxCell id="YHIWVxLttBBWoFxB0M0W-501" value="" style="endArrow=none;html=1;rounded=0;sketch=1;hachureGap=4;jiggle=2;curveFitting=1;strokeWidth=2;fontFamily=Architects Daughter;fontSource=https%3A%2F%2Ffonts.googleapis.com%2Fcss%3Ffamily%3DArchitects%2BDaughter;fontSize=20;entryX=0.99;entryY=-0.023;entryDx=0;entryDy=0;entryPerimeter=0;strokeColor=#009900;exitX=0.004;exitY=-0.068;exitDx=0;exitDy=0;exitPerimeter=0;" edge="1" parent="YHIWVxLttBBWoFxB0M0W-485" source="YHIWVxLttBBWoFxB0M0W-498" target="YHIWVxLttBBWoFxB0M0W-498">
          <mxGeometry relative="1" as="geometry">
            <mxPoint y="180" as="sourcePoint" />
            <mxPoint x="160" y="180" as="targetPoint" />
          </mxGeometry>
        </mxCell>
        <mxCell id="YHIWVxLttBBWoFxB0M0W-516" value="FirstName[OV]" style="swimlane;fontStyle=1;childLayout=stackLayout;horizontal=1;startSize=40;horizontalStack=0;resizeParent=1;resizeParentMax=0;resizeLast=0;collapsible=1;marginBottom=0;align=center;fontSize=20;rounded=0;shadow=1;labelBorderColor=none;sketch=1;hachureGap=4;jiggle=2;fillStyle=cross-hatch;curveFitting=1;strokeColor=#99004D;strokeWidth=2;fontFamily=Helvetica;fillColor=none;gradientColor=none;" vertex="1" parent="obTtGBHouLAVe-Cv3UEX-1">
          <mxGeometry x="550" y="-4" width="250" height="178" as="geometry" />
        </mxCell>
        <mxCell id="YHIWVxLttBBWoFxB0M0W-517" value="+ Value &lt;string&gt;" style="text;strokeColor=none;fillColor=none;spacingLeft=4;spacingRight=4;overflow=hidden;rotatable=0;points=[[0,0.5],[1,0.5]];portConstraint=eastwest;fontSize=25;fontFamily=Helvetica;" vertex="1" parent="YHIWVxLttBBWoFxB0M0W-516">
          <mxGeometry y="40" width="250" height="40" as="geometry" />
        </mxCell>
        <mxCell id="YHIWVxLttBBWoFxB0M0W-518" value="" style="line;strokeWidth=1;rotatable=0;dashed=0;labelPosition=right;align=left;verticalAlign=middle;spacingTop=0;spacingLeft=6;points=[];portConstraint=eastwest;sketch=1;hachureGap=4;jiggle=2;curveFitting=1;strokeColor=#99004D;fontFamily=Architects Daughter;fontSource=https%3A%2F%2Ffonts.googleapis.com%2Fcss%3Ffamily%3DArchitects%2BDaughter;fontSize=20;" vertex="1" parent="YHIWVxLttBBWoFxB0M0W-516">
          <mxGeometry y="80" width="250" height="10" as="geometry" />
        </mxCell>
        <mxCell id="YHIWVxLttBBWoFxB0M0W-519" value="+ MinLength()" style="text;strokeColor=none;fillColor=none;spacingLeft=4;spacingRight=4;overflow=hidden;rotatable=0;points=[[0,0.5],[1,0.5]];portConstraint=eastwest;fontSize=25;fontFamily=Helvetica;" vertex="1" parent="YHIWVxLttBBWoFxB0M0W-516">
          <mxGeometry y="90" width="250" height="44" as="geometry" />
        </mxCell>
        <mxCell id="YHIWVxLttBBWoFxB0M0W-520" value="+ MaxLength()" style="text;strokeColor=none;fillColor=none;spacingLeft=4;spacingRight=4;overflow=hidden;rotatable=0;points=[[0,0.5],[1,0.5]];portConstraint=eastwest;fontSize=25;fontFamily=Helvetica;" vertex="1" parent="YHIWVxLttBBWoFxB0M0W-516">
          <mxGeometry y="134" width="250" height="44" as="geometry" />
        </mxCell>
        <mxCell id="YHIWVxLttBBWoFxB0M0W-522" value="VendedorId[OV]" style="swimlane;fontStyle=1;childLayout=stackLayout;horizontal=1;startSize=40;horizontalStack=0;resizeParent=1;resizeParentMax=0;resizeLast=0;collapsible=1;marginBottom=0;align=center;fontSize=20;rounded=0;shadow=1;labelBorderColor=none;sketch=1;hachureGap=4;jiggle=2;fillStyle=cross-hatch;curveFitting=1;strokeColor=#99004D;strokeWidth=2;fontFamily=Helvetica;fillColor=none;gradientColor=none;" vertex="1" parent="obTtGBHouLAVe-Cv3UEX-1">
          <mxGeometry x="130" y="-148" width="230" height="160" as="geometry" />
        </mxCell>
        <mxCell id="YHIWVxLttBBWoFxB0M0W-523" value="+ Value &lt;UUID&gt;" style="text;strokeColor=none;fillColor=none;spacingLeft=4;spacingRight=4;overflow=hidden;rotatable=0;points=[[0,0.5],[1,0.5]];portConstraint=eastwest;fontSize=25;fontFamily=Helvetica;" vertex="1" parent="YHIWVxLttBBWoFxB0M0W-522">
          <mxGeometry y="40" width="230" height="30" as="geometry" />
        </mxCell>
        <mxCell id="YHIWVxLttBBWoFxB0M0W-524" value="" style="line;strokeWidth=1;rotatable=0;dashed=0;labelPosition=right;align=left;verticalAlign=middle;spacingTop=0;spacingLeft=6;points=[];portConstraint=eastwest;sketch=1;hachureGap=4;jiggle=2;curveFitting=1;strokeColor=#99004D;fontFamily=Architects Daughter;fontSource=https%3A%2F%2Ffonts.googleapis.com%2Fcss%3Ffamily%3DArchitects%2BDaughter;fontSize=20;" vertex="1" parent="YHIWVxLttBBWoFxB0M0W-522">
          <mxGeometry y="70" width="230" height="10" as="geometry" />
        </mxCell>
        <mxCell id="YHIWVxLttBBWoFxB0M0W-525" value="+ ValidateUUID()" style="text;strokeColor=none;fillColor=none;spacingLeft=4;spacingRight=4;overflow=hidden;rotatable=0;points=[[0,0.5],[1,0.5]];portConstraint=eastwest;fontSize=25;fontFamily=Helvetica;" vertex="1" parent="YHIWVxLttBBWoFxB0M0W-522">
          <mxGeometry y="80" width="230" height="40" as="geometry" />
        </mxCell>
        <mxCell id="YHIWVxLttBBWoFxB0M0W-526" value="+ IsSeller()" style="text;strokeColor=none;fillColor=none;spacingLeft=4;spacingRight=4;overflow=hidden;rotatable=0;points=[[0,0.5],[1,0.5]];portConstraint=eastwest;fontSize=25;fontFamily=Helvetica;" vertex="1" parent="YHIWVxLttBBWoFxB0M0W-522">
          <mxGeometry y="120" width="230" height="40" as="geometry" />
        </mxCell>
        <mxCell id="YHIWVxLttBBWoFxB0M0W-528" value="Email[OV]" style="swimlane;fontStyle=1;childLayout=stackLayout;horizontal=1;startSize=40;horizontalStack=0;resizeParent=1;resizeParentMax=0;resizeLast=0;collapsible=1;marginBottom=0;align=center;fontSize=20;rounded=0;shadow=1;labelBorderColor=none;sketch=1;hachureGap=4;jiggle=2;fillStyle=cross-hatch;curveFitting=1;strokeColor=#99004D;strokeWidth=2;fontFamily=Helvetica;fillColor=none;gradientColor=none;" vertex="1" parent="obTtGBHouLAVe-Cv3UEX-1">
          <mxGeometry x="130" y="480" width="250" height="134" as="geometry" />
        </mxCell>
        <mxCell id="YHIWVxLttBBWoFxB0M0W-529" value="+ Value &lt;string&gt;" style="text;strokeColor=none;fillColor=none;spacingLeft=4;spacingRight=4;overflow=hidden;rotatable=0;points=[[0,0.5],[1,0.5]];portConstraint=eastwest;fontSize=25;fontFamily=Helvetica;" vertex="1" parent="YHIWVxLttBBWoFxB0M0W-528">
          <mxGeometry y="40" width="250" height="40" as="geometry" />
        </mxCell>
        <mxCell id="YHIWVxLttBBWoFxB0M0W-530" value="" style="line;strokeWidth=1;rotatable=0;dashed=0;labelPosition=right;align=left;verticalAlign=middle;spacingTop=0;spacingLeft=6;points=[];portConstraint=eastwest;sketch=1;hachureGap=4;jiggle=2;curveFitting=1;strokeColor=#99004D;fontFamily=Architects Daughter;fontSource=https%3A%2F%2Ffonts.googleapis.com%2Fcss%3Ffamily%3DArchitects%2BDaughter;fontSize=20;" vertex="1" parent="YHIWVxLttBBWoFxB0M0W-528">
          <mxGeometry y="80" width="250" height="10" as="geometry" />
        </mxCell>
        <mxCell id="YHIWVxLttBBWoFxB0M0W-532" value="+ ValidateStructure()" style="text;strokeColor=none;fillColor=none;spacingLeft=4;spacingRight=4;overflow=hidden;rotatable=0;points=[[0,0.5],[1,0.5]];portConstraint=eastwest;fontSize=25;fontFamily=Helvetica;" vertex="1" parent="YHIWVxLttBBWoFxB0M0W-528">
          <mxGeometry y="90" width="250" height="44" as="geometry" />
        </mxCell>
        <mxCell id="YHIWVxLttBBWoFxB0M0W-537" value="FullNameType" style="swimlane;fontStyle=1;childLayout=stackLayout;horizontal=1;startSize=40;horizontalStack=0;resizeParent=1;resizeParentMax=0;resizeLast=0;collapsible=1;marginBottom=0;align=center;fontSize=20;rounded=0;shadow=1;labelBorderColor=none;sketch=1;hachureGap=4;jiggle=2;fillStyle=cross-hatch;curveFitting=1;strokeColor=#99004D;strokeWidth=2;fontFamily=Helvetica;fillColor=none;gradientColor=none;" vertex="1" parent="obTtGBHouLAVe-Cv3UEX-1">
          <mxGeometry x="120" y="65" width="250" height="120" as="geometry" />
        </mxCell>
        <mxCell id="YHIWVxLttBBWoFxB0M0W-540" value="FistName&lt;String&gt;" style="text;strokeColor=none;fillColor=none;spacingLeft=4;spacingRight=4;overflow=hidden;rotatable=0;points=[[0,0.5],[1,0.5]];portConstraint=eastwest;fontSize=25;fontFamily=Helvetica;" vertex="1" parent="YHIWVxLttBBWoFxB0M0W-537">
          <mxGeometry y="40" width="250" height="40" as="geometry" />
        </mxCell>
        <mxCell id="YHIWVxLttBBWoFxB0M0W-541" value="LastName&lt;String&gt;" style="text;strokeColor=none;fillColor=none;spacingLeft=4;spacingRight=4;overflow=hidden;rotatable=0;points=[[0,0.5],[1,0.5]];portConstraint=eastwest;fontSize=25;fontFamily=Helvetica;" vertex="1" parent="YHIWVxLttBBWoFxB0M0W-537">
          <mxGeometry y="80" width="250" height="40" as="geometry" />
        </mxCell>
        <mxCell id="YHIWVxLttBBWoFxB0M0W-542" style="edgeStyle=orthogonalEdgeStyle;rounded=0;sketch=1;hachureGap=4;jiggle=2;curveFitting=1;orthogonalLoop=1;jettySize=auto;html=1;exitX=1;exitY=0.5;exitDx=0;exitDy=0;entryX=0.006;entryY=0.147;entryDx=0;entryDy=0;entryPerimeter=0;fontFamily=Architects Daughter;fontSource=https%3A%2F%2Ffonts.googleapis.com%2Fcss%3Ffamily%3DArchitects%2BDaughter;fontSize=16;" edge="1" parent="obTtGBHouLAVe-Cv3UEX-1" source="YHIWVxLttBBWoFxB0M0W-486" target="YHIWVxLttBBWoFxB0M0W-522">
          <mxGeometry relative="1" as="geometry" />
        </mxCell>
        <mxCell id="YHIWVxLttBBWoFxB0M0W-543" style="edgeStyle=orthogonalEdgeStyle;rounded=0;sketch=1;hachureGap=4;jiggle=2;curveFitting=1;orthogonalLoop=1;jettySize=auto;html=1;entryX=0;entryY=0.25;entryDx=0;entryDy=0;fontFamily=Architects Daughter;fontSource=https%3A%2F%2Ffonts.googleapis.com%2Fcss%3Ffamily%3DArchitects%2BDaughter;fontSize=16;" edge="1" parent="obTtGBHouLAVe-Cv3UEX-1" source="YHIWVxLttBBWoFxB0M0W-151" target="YHIWVxLttBBWoFxB0M0W-223">
          <mxGeometry relative="1" as="geometry" />
        </mxCell>
        <mxCell id="YHIWVxLttBBWoFxB0M0W-544" style="edgeStyle=orthogonalEdgeStyle;rounded=0;sketch=1;hachureGap=4;jiggle=2;curveFitting=1;orthogonalLoop=1;jettySize=auto;html=1;entryX=0;entryY=0.25;entryDx=0;entryDy=0;fontFamily=Architects Daughter;fontSource=https%3A%2F%2Ffonts.googleapis.com%2Fcss%3Ffamily%3DArchitects%2BDaughter;fontSize=16;" edge="1" parent="obTtGBHouLAVe-Cv3UEX-1" source="YHIWVxLttBBWoFxB0M0W-213">
          <mxGeometry relative="1" as="geometry">
            <mxPoint x="150" y="-634.5" as="targetPoint" />
            <Array as="points">
              <mxPoint x="90" y="-223" />
              <mxPoint x="90" y="-634" />
            </Array>
          </mxGeometry>
        </mxCell>
        <mxCell id="YHIWVxLttBBWoFxB0M0W-545" style="edgeStyle=orthogonalEdgeStyle;rounded=0;sketch=1;hachureGap=4;jiggle=2;curveFitting=1;orthogonalLoop=1;jettySize=auto;html=1;entryX=0;entryY=0.169;entryDx=0;entryDy=0;entryPerimeter=0;fontFamily=Architects Daughter;fontSource=https%3A%2F%2Ffonts.googleapis.com%2Fcss%3Ffamily%3DArchitects%2BDaughter;fontSize=16;" edge="1" parent="obTtGBHouLAVe-Cv3UEX-1" source="YHIWVxLttBBWoFxB0M0W-160" target="YHIWVxLttBBWoFxB0M0W-217">
          <mxGeometry relative="1" as="geometry">
            <Array as="points">
              <mxPoint x="110" y="-193" />
              <mxPoint x="110" y="-390" />
            </Array>
          </mxGeometry>
        </mxCell>
        <mxCell id="YHIWVxLttBBWoFxB0M0W-547" style="edgeStyle=orthogonalEdgeStyle;rounded=0;sketch=1;hachureGap=4;jiggle=2;curveFitting=1;orthogonalLoop=1;jettySize=auto;html=1;entryX=0;entryY=0.25;entryDx=0;entryDy=0;fontFamily=Architects Daughter;fontSource=https%3A%2F%2Ffonts.googleapis.com%2Fcss%3Ffamily%3DArchitects%2BDaughter;fontSize=16;" edge="1" parent="obTtGBHouLAVe-Cv3UEX-1" source="YHIWVxLttBBWoFxB0M0W-489" target="YHIWVxLttBBWoFxB0M0W-537">
          <mxGeometry relative="1" as="geometry">
            <Array as="points">
              <mxPoint x="90" y="55" />
              <mxPoint x="90" y="95" />
            </Array>
          </mxGeometry>
        </mxCell>
        <mxCell id="YHIWVxLttBBWoFxB0M0W-548" value="Password[OV]" style="swimlane;fontStyle=1;childLayout=stackLayout;horizontal=1;startSize=40;horizontalStack=0;resizeParent=1;resizeParentMax=0;resizeLast=0;collapsible=1;marginBottom=0;align=center;fontSize=20;rounded=0;shadow=1;labelBorderColor=none;sketch=1;hachureGap=4;jiggle=2;fillStyle=cross-hatch;curveFitting=1;strokeColor=#99004D;strokeWidth=2;fontFamily=Helvetica;fillColor=none;gradientColor=none;" vertex="1" parent="obTtGBHouLAVe-Cv3UEX-1">
          <mxGeometry x="120" y="230" width="250" height="222" as="geometry" />
        </mxCell>
        <mxCell id="YHIWVxLttBBWoFxB0M0W-549" value="+ Value &lt;String&gt;" style="text;strokeColor=none;fillColor=none;spacingLeft=4;spacingRight=4;overflow=hidden;rotatable=0;points=[[0,0.5],[1,0.5]];portConstraint=eastwest;fontSize=25;fontFamily=Helvetica;" vertex="1" parent="YHIWVxLttBBWoFxB0M0W-548">
          <mxGeometry y="40" width="250" height="40" as="geometry" />
        </mxCell>
        <mxCell id="YHIWVxLttBBWoFxB0M0W-550" value="" style="line;strokeWidth=1;rotatable=0;dashed=0;labelPosition=right;align=left;verticalAlign=middle;spacingTop=0;spacingLeft=6;points=[];portConstraint=eastwest;sketch=1;hachureGap=4;jiggle=2;curveFitting=1;strokeColor=#99004D;fontFamily=Architects Daughter;fontSource=https%3A%2F%2Ffonts.googleapis.com%2Fcss%3Ffamily%3DArchitects%2BDaughter;fontSize=20;" vertex="1" parent="YHIWVxLttBBWoFxB0M0W-548">
          <mxGeometry y="80" width="250" height="10" as="geometry" />
        </mxCell>
        <mxCell id="YHIWVxLttBBWoFxB0M0W-551" value="+ MinLength()" style="text;strokeColor=none;fillColor=none;spacingLeft=4;spacingRight=4;overflow=hidden;rotatable=0;points=[[0,0.5],[1,0.5]];portConstraint=eastwest;fontSize=25;fontFamily=Helvetica;" vertex="1" parent="YHIWVxLttBBWoFxB0M0W-548">
          <mxGeometry y="90" width="250" height="44" as="geometry" />
        </mxCell>
        <mxCell id="YHIWVxLttBBWoFxB0M0W-552" value="+ MaxLength()" style="text;strokeColor=none;fillColor=none;spacingLeft=4;spacingRight=4;overflow=hidden;rotatable=0;points=[[0,0.5],[1,0.5]];portConstraint=eastwest;fontSize=25;fontFamily=Helvetica;" vertex="1" parent="YHIWVxLttBBWoFxB0M0W-548">
          <mxGeometry y="134" width="250" height="44" as="geometry" />
        </mxCell>
        <mxCell id="YHIWVxLttBBWoFxB0M0W-553" value="+ PatternRequired()" style="text;strokeColor=none;fillColor=none;spacingLeft=4;spacingRight=4;overflow=hidden;rotatable=0;points=[[0,0.5],[1,0.5]];portConstraint=eastwest;fontSize=25;fontFamily=Helvetica;" vertex="1" parent="YHIWVxLttBBWoFxB0M0W-548">
          <mxGeometry y="178" width="250" height="44" as="geometry" />
        </mxCell>
        <mxCell id="YHIWVxLttBBWoFxB0M0W-554" value="City [OV]" style="swimlane;fontStyle=1;childLayout=stackLayout;horizontal=1;startSize=40;horizontalStack=0;resizeParent=1;resizeParentMax=0;resizeLast=0;collapsible=1;marginBottom=0;align=center;fontSize=20;rounded=0;shadow=1;labelBorderColor=none;sketch=1;hachureGap=4;jiggle=2;fillStyle=cross-hatch;curveFitting=1;strokeColor=#99004D;strokeWidth=2;fontFamily=Helvetica;fillColor=none;gradientColor=none;" vertex="1" parent="obTtGBHouLAVe-Cv3UEX-1">
          <mxGeometry x="570" y="-810" width="250" height="178" as="geometry" />
        </mxCell>
        <mxCell id="YHIWVxLttBBWoFxB0M0W-555" value="+ Value &lt;String&gt;" style="text;strokeColor=none;fillColor=none;spacingLeft=4;spacingRight=4;overflow=hidden;rotatable=0;points=[[0,0.5],[1,0.5]];portConstraint=eastwest;fontSize=25;fontFamily=Helvetica;" vertex="1" parent="YHIWVxLttBBWoFxB0M0W-554">
          <mxGeometry y="40" width="250" height="40" as="geometry" />
        </mxCell>
        <mxCell id="YHIWVxLttBBWoFxB0M0W-556" value="" style="line;strokeWidth=1;rotatable=0;dashed=0;labelPosition=right;align=left;verticalAlign=middle;spacingTop=0;spacingLeft=6;points=[];portConstraint=eastwest;sketch=1;hachureGap=4;jiggle=2;curveFitting=1;strokeColor=#99004D;fontFamily=Architects Daughter;fontSource=https%3A%2F%2Ffonts.googleapis.com%2Fcss%3Ffamily%3DArchitects%2BDaughter;fontSize=20;" vertex="1" parent="YHIWVxLttBBWoFxB0M0W-554">
          <mxGeometry y="80" width="250" height="10" as="geometry" />
        </mxCell>
        <mxCell id="YHIWVxLttBBWoFxB0M0W-557" value="+ MinLength()" style="text;strokeColor=none;fillColor=none;spacingLeft=4;spacingRight=4;overflow=hidden;rotatable=0;points=[[0,0.5],[1,0.5]];portConstraint=eastwest;fontSize=25;fontFamily=Helvetica;" vertex="1" parent="YHIWVxLttBBWoFxB0M0W-554">
          <mxGeometry y="90" width="250" height="44" as="geometry" />
        </mxCell>
        <mxCell id="YHIWVxLttBBWoFxB0M0W-558" value="+ MaxLength()" style="text;strokeColor=none;fillColor=none;spacingLeft=4;spacingRight=4;overflow=hidden;rotatable=0;points=[[0,0.5],[1,0.5]];portConstraint=eastwest;fontSize=25;fontFamily=Helvetica;" vertex="1" parent="YHIWVxLttBBWoFxB0M0W-554">
          <mxGeometry y="134" width="250" height="44" as="geometry" />
        </mxCell>
        <mxCell id="YHIWVxLttBBWoFxB0M0W-560" style="edgeStyle=orthogonalEdgeStyle;rounded=0;sketch=1;hachureGap=4;jiggle=2;curveFitting=1;orthogonalLoop=1;jettySize=auto;html=1;entryX=-0.031;entryY=0.082;entryDx=0;entryDy=0;entryPerimeter=0;fontFamily=Architects Daughter;fontSource=https%3A%2F%2Ffonts.googleapis.com%2Fcss%3Ffamily%3DArchitects%2BDaughter;fontSize=16;" edge="1" parent="obTtGBHouLAVe-Cv3UEX-1" source="YHIWVxLttBBWoFxB0M0W-239" target="YHIWVxLttBBWoFxB0M0W-554">
          <mxGeometry relative="1" as="geometry" />
        </mxCell>
        <mxCell id="YHIWVxLttBBWoFxB0M0W-562" value="Country [OV]" style="swimlane;fontStyle=1;childLayout=stackLayout;horizontal=1;startSize=40;horizontalStack=0;resizeParent=1;resizeParentMax=0;resizeLast=0;collapsible=1;marginBottom=0;align=center;fontSize=20;rounded=0;shadow=1;labelBorderColor=none;sketch=1;hachureGap=4;jiggle=2;fillStyle=cross-hatch;curveFitting=1;strokeColor=#99004D;strokeWidth=2;fontFamily=Helvetica;fillColor=none;gradientColor=none;" vertex="1" parent="obTtGBHouLAVe-Cv3UEX-1">
          <mxGeometry x="570" y="-570" width="250" height="178" as="geometry" />
        </mxCell>
        <mxCell id="YHIWVxLttBBWoFxB0M0W-563" value="+ Value &lt;String&gt;" style="text;strokeColor=none;fillColor=none;spacingLeft=4;spacingRight=4;overflow=hidden;rotatable=0;points=[[0,0.5],[1,0.5]];portConstraint=eastwest;fontSize=25;fontFamily=Helvetica;" vertex="1" parent="YHIWVxLttBBWoFxB0M0W-562">
          <mxGeometry y="40" width="250" height="40" as="geometry" />
        </mxCell>
        <mxCell id="YHIWVxLttBBWoFxB0M0W-564" value="" style="line;strokeWidth=1;rotatable=0;dashed=0;labelPosition=right;align=left;verticalAlign=middle;spacingTop=0;spacingLeft=6;points=[];portConstraint=eastwest;sketch=1;hachureGap=4;jiggle=2;curveFitting=1;strokeColor=#99004D;fontFamily=Architects Daughter;fontSource=https%3A%2F%2Ffonts.googleapis.com%2Fcss%3Ffamily%3DArchitects%2BDaughter;fontSize=20;" vertex="1" parent="YHIWVxLttBBWoFxB0M0W-562">
          <mxGeometry y="80" width="250" height="10" as="geometry" />
        </mxCell>
        <mxCell id="YHIWVxLttBBWoFxB0M0W-565" value="+ MinLength()" style="text;strokeColor=none;fillColor=none;spacingLeft=4;spacingRight=4;overflow=hidden;rotatable=0;points=[[0,0.5],[1,0.5]];portConstraint=eastwest;fontSize=25;fontFamily=Helvetica;" vertex="1" parent="YHIWVxLttBBWoFxB0M0W-562">
          <mxGeometry y="90" width="250" height="44" as="geometry" />
        </mxCell>
        <mxCell id="YHIWVxLttBBWoFxB0M0W-566" value="+ MaxLength()" style="text;strokeColor=none;fillColor=none;spacingLeft=4;spacingRight=4;overflow=hidden;rotatable=0;points=[[0,0.5],[1,0.5]];portConstraint=eastwest;fontSize=25;fontFamily=Helvetica;" vertex="1" parent="YHIWVxLttBBWoFxB0M0W-562">
          <mxGeometry y="134" width="250" height="44" as="geometry" />
        </mxCell>
        <mxCell id="YHIWVxLttBBWoFxB0M0W-567" style="edgeStyle=orthogonalEdgeStyle;rounded=0;sketch=1;hachureGap=4;jiggle=2;curveFitting=1;orthogonalLoop=1;jettySize=auto;html=1;entryX=0;entryY=0.25;entryDx=0;entryDy=0;fontFamily=Architects Daughter;fontSource=https%3A%2F%2Ffonts.googleapis.com%2Fcss%3Ffamily%3DArchitects%2BDaughter;fontSize=16;" edge="1" parent="obTtGBHouLAVe-Cv3UEX-1" source="YHIWVxLttBBWoFxB0M0W-242" target="YHIWVxLttBBWoFxB0M0W-562">
          <mxGeometry relative="1" as="geometry" />
        </mxCell>
        <mxCell id="YHIWVxLttBBWoFxB0M0W-568" value="Role[OV]" style="swimlane;fontStyle=1;childLayout=stackLayout;horizontal=1;startSize=40;horizontalStack=0;resizeParent=1;resizeParentMax=0;resizeLast=0;collapsible=1;marginBottom=0;align=center;fontSize=20;rounded=0;shadow=1;labelBorderColor=none;sketch=1;hachureGap=4;jiggle=2;fillStyle=cross-hatch;curveFitting=1;strokeColor=#99004D;strokeWidth=2;fontFamily=Helvetica;fillColor=none;gradientColor=none;" vertex="1" parent="obTtGBHouLAVe-Cv3UEX-1">
          <mxGeometry x="130" y="640" width="250" height="134" as="geometry" />
        </mxCell>
        <mxCell id="YHIWVxLttBBWoFxB0M0W-569" value="+ Value &lt;String&gt;" style="text;strokeColor=none;fillColor=none;spacingLeft=4;spacingRight=4;overflow=hidden;rotatable=0;points=[[0,0.5],[1,0.5]];portConstraint=eastwest;fontSize=25;fontFamily=Helvetica;" vertex="1" parent="YHIWVxLttBBWoFxB0M0W-568">
          <mxGeometry y="40" width="250" height="40" as="geometry" />
        </mxCell>
        <mxCell id="YHIWVxLttBBWoFxB0M0W-570" value="" style="line;strokeWidth=1;rotatable=0;dashed=0;labelPosition=right;align=left;verticalAlign=middle;spacingTop=0;spacingLeft=6;points=[];portConstraint=eastwest;sketch=1;hachureGap=4;jiggle=2;curveFitting=1;strokeColor=#99004D;fontFamily=Architects Daughter;fontSource=https%3A%2F%2Ffonts.googleapis.com%2Fcss%3Ffamily%3DArchitects%2BDaughter;fontSize=20;" vertex="1" parent="YHIWVxLttBBWoFxB0M0W-568">
          <mxGeometry y="80" width="250" height="10" as="geometry" />
        </mxCell>
        <mxCell id="YHIWVxLttBBWoFxB0M0W-573" value="+ EnumValidation()" style="text;strokeColor=none;fillColor=none;spacingLeft=4;spacingRight=4;overflow=hidden;rotatable=0;points=[[0,0.5],[1,0.5]];portConstraint=eastwest;fontSize=25;fontFamily=Helvetica;" vertex="1" parent="YHIWVxLttBBWoFxB0M0W-568">
          <mxGeometry y="90" width="250" height="44" as="geometry" />
        </mxCell>
        <mxCell id="YHIWVxLttBBWoFxB0M0W-574" value="LastName[OV]" style="swimlane;fontStyle=1;childLayout=stackLayout;horizontal=1;startSize=40;horizontalStack=0;resizeParent=1;resizeParentMax=0;resizeLast=0;collapsible=1;marginBottom=0;align=center;fontSize=20;rounded=0;shadow=1;labelBorderColor=none;sketch=1;hachureGap=4;jiggle=2;fillStyle=cross-hatch;curveFitting=1;strokeColor=#99004D;strokeWidth=2;fontFamily=Helvetica;fillColor=none;gradientColor=none;" vertex="1" parent="obTtGBHouLAVe-Cv3UEX-1">
          <mxGeometry x="540" y="220" width="250" height="178" as="geometry" />
        </mxCell>
        <mxCell id="YHIWVxLttBBWoFxB0M0W-575" value="+ Value &lt;string&gt;" style="text;strokeColor=none;fillColor=none;spacingLeft=4;spacingRight=4;overflow=hidden;rotatable=0;points=[[0,0.5],[1,0.5]];portConstraint=eastwest;fontSize=25;fontFamily=Helvetica;" vertex="1" parent="YHIWVxLttBBWoFxB0M0W-574">
          <mxGeometry y="40" width="250" height="40" as="geometry" />
        </mxCell>
        <mxCell id="YHIWVxLttBBWoFxB0M0W-576" value="" style="line;strokeWidth=1;rotatable=0;dashed=0;labelPosition=right;align=left;verticalAlign=middle;spacingTop=0;spacingLeft=6;points=[];portConstraint=eastwest;sketch=1;hachureGap=4;jiggle=2;curveFitting=1;strokeColor=#99004D;fontFamily=Architects Daughter;fontSource=https%3A%2F%2Ffonts.googleapis.com%2Fcss%3Ffamily%3DArchitects%2BDaughter;fontSize=20;" vertex="1" parent="YHIWVxLttBBWoFxB0M0W-574">
          <mxGeometry y="80" width="250" height="10" as="geometry" />
        </mxCell>
        <mxCell id="YHIWVxLttBBWoFxB0M0W-577" value="+ MinLength()" style="text;strokeColor=none;fillColor=none;spacingLeft=4;spacingRight=4;overflow=hidden;rotatable=0;points=[[0,0.5],[1,0.5]];portConstraint=eastwest;fontSize=25;fontFamily=Helvetica;" vertex="1" parent="YHIWVxLttBBWoFxB0M0W-574">
          <mxGeometry y="90" width="250" height="44" as="geometry" />
        </mxCell>
        <mxCell id="YHIWVxLttBBWoFxB0M0W-578" value="+ MaxLength()" style="text;strokeColor=none;fillColor=none;spacingLeft=4;spacingRight=4;overflow=hidden;rotatable=0;points=[[0,0.5],[1,0.5]];portConstraint=eastwest;fontSize=25;fontFamily=Helvetica;" vertex="1" parent="YHIWVxLttBBWoFxB0M0W-574">
          <mxGeometry y="134" width="250" height="44" as="geometry" />
        </mxCell>
        <mxCell id="YHIWVxLttBBWoFxB0M0W-579" style="edgeStyle=orthogonalEdgeStyle;rounded=0;sketch=1;hachureGap=4;jiggle=2;curveFitting=1;orthogonalLoop=1;jettySize=auto;html=1;entryX=-0.018;entryY=0.165;entryDx=0;entryDy=0;entryPerimeter=0;fontFamily=Architects Daughter;fontSource=https%3A%2F%2Ffonts.googleapis.com%2Fcss%3Ffamily%3DArchitects%2BDaughter;fontSize=16;" edge="1" parent="obTtGBHouLAVe-Cv3UEX-1" source="YHIWVxLttBBWoFxB0M0W-537" target="YHIWVxLttBBWoFxB0M0W-516">
          <mxGeometry relative="1" as="geometry" />
        </mxCell>
        <mxCell id="YHIWVxLttBBWoFxB0M0W-580" style="edgeStyle=orthogonalEdgeStyle;rounded=0;sketch=1;hachureGap=4;jiggle=2;curveFitting=1;orthogonalLoop=1;jettySize=auto;html=1;entryX=0;entryY=0.25;entryDx=0;entryDy=0;fontFamily=Architects Daughter;fontSource=https%3A%2F%2Ffonts.googleapis.com%2Fcss%3Ffamily%3DArchitects%2BDaughter;fontSize=16;" edge="1" parent="obTtGBHouLAVe-Cv3UEX-1" source="YHIWVxLttBBWoFxB0M0W-541" target="YHIWVxLttBBWoFxB0M0W-574">
          <mxGeometry relative="1" as="geometry" />
        </mxCell>
        <mxCell id="YHIWVxLttBBWoFxB0M0W-581" style="edgeStyle=orthogonalEdgeStyle;rounded=0;sketch=1;hachureGap=4;jiggle=2;curveFitting=1;orthogonalLoop=1;jettySize=auto;html=1;entryX=-0.001;entryY=0.177;entryDx=0;entryDy=0;entryPerimeter=0;fontFamily=Architects Daughter;fontSource=https%3A%2F%2Ffonts.googleapis.com%2Fcss%3Ffamily%3DArchitects%2BDaughter;fontSize=16;" edge="1" parent="obTtGBHouLAVe-Cv3UEX-1" source="YHIWVxLttBBWoFxB0M0W-492" target="YHIWVxLttBBWoFxB0M0W-548">
          <mxGeometry relative="1" as="geometry">
            <Array as="points">
              <mxPoint x="70" y="85" />
              <mxPoint x="70" y="269" />
            </Array>
          </mxGeometry>
        </mxCell>
        <mxCell id="YHIWVxLttBBWoFxB0M0W-582" style="edgeStyle=orthogonalEdgeStyle;rounded=0;sketch=1;hachureGap=4;jiggle=2;curveFitting=1;orthogonalLoop=1;jettySize=auto;html=1;entryX=0;entryY=0.25;entryDx=0;entryDy=0;fontFamily=Architects Daughter;fontSource=https%3A%2F%2Ffonts.googleapis.com%2Fcss%3Ffamily%3DArchitects%2BDaughter;fontSize=16;" edge="1" parent="obTtGBHouLAVe-Cv3UEX-1" source="YHIWVxLttBBWoFxB0M0W-495" target="YHIWVxLttBBWoFxB0M0W-528">
          <mxGeometry relative="1" as="geometry" />
        </mxCell>
        <mxCell id="YHIWVxLttBBWoFxB0M0W-583" style="edgeStyle=orthogonalEdgeStyle;rounded=0;sketch=1;hachureGap=4;jiggle=2;curveFitting=1;orthogonalLoop=1;jettySize=auto;html=1;entryX=-0.007;entryY=0.175;entryDx=0;entryDy=0;entryPerimeter=0;fontFamily=Architects Daughter;fontSource=https%3A%2F%2Ffonts.googleapis.com%2Fcss%3Ffamily%3DArchitects%2BDaughter;fontSize=16;" edge="1" parent="obTtGBHouLAVe-Cv3UEX-1" source="YHIWVxLttBBWoFxB0M0W-534" target="YHIWVxLttBBWoFxB0M0W-568">
          <mxGeometry relative="1" as="geometry">
            <Array as="points">
              <mxPoint x="20" y="145" />
              <mxPoint x="20" y="663" />
            </Array>
          </mxGeometry>
        </mxCell>
        <mxCell id="YHIWVxLttBBWoFxB0M0W-584" style="edgeStyle=orthogonalEdgeStyle;rounded=0;sketch=1;hachureGap=4;jiggle=2;curveFitting=1;orthogonalLoop=1;jettySize=auto;html=1;exitX=0.5;exitY=0;exitDx=0;exitDy=0;entryX=0.55;entryY=0.005;entryDx=0;entryDy=0;entryPerimeter=0;fontFamily=Architects Daughter;fontSource=https%3A%2F%2Ffonts.googleapis.com%2Fcss%3Ffamily%3DArchitects%2BDaughter;fontSize=16;" edge="1" parent="obTtGBHouLAVe-Cv3UEX-1" source="YHIWVxLttBBWoFxB0M0W-568" target="YHIWVxLttBBWoFxB0M0W-568">
          <mxGeometry relative="1" as="geometry" />
        </mxCell>
        <mxCell id="YHIWVxLttBBWoFxB0M0W-585" style="edgeStyle=orthogonalEdgeStyle;rounded=0;sketch=1;hachureGap=4;jiggle=2;curveFitting=1;orthogonalLoop=1;jettySize=auto;html=1;entryX=1;entryY=0.5;entryDx=0;entryDy=0;fontFamily=Architects Daughter;fontSource=https%3A%2F%2Ffonts.googleapis.com%2Fcss%3Ffamily%3DArchitects%2BDaughter;fontSize=16;" edge="1" parent="obTtGBHouLAVe-Cv3UEX-1" source="YHIWVxLttBBWoFxB0M0W-306" target="YHIWVxLttBBWoFxB0M0W-351">
          <mxGeometry relative="1" as="geometry" />
        </mxCell>
        <mxCell id="YHIWVxLttBBWoFxB0M0W-586" style="edgeStyle=orthogonalEdgeStyle;rounded=0;sketch=1;hachureGap=4;jiggle=2;curveFitting=1;orthogonalLoop=1;jettySize=auto;html=1;exitX=0;exitY=0.5;exitDx=0;exitDy=0;entryX=1;entryY=0.5;entryDx=0;entryDy=0;fontFamily=Architects Daughter;fontSource=https%3A%2F%2Ffonts.googleapis.com%2Fcss%3Ffamily%3DArchitects%2BDaughter;fontSize=16;" edge="1" parent="obTtGBHouLAVe-Cv3UEX-1" source="YHIWVxLttBBWoFxB0M0W-309" target="YHIWVxLttBBWoFxB0M0W-358">
          <mxGeometry relative="1" as="geometry">
            <Array as="points">
              <mxPoint x="-840" y="-105" />
              <mxPoint x="-840" y="-166" />
            </Array>
          </mxGeometry>
        </mxCell>
        <mxCell id="YHIWVxLttBBWoFxB0M0W-587" value="Category[OV]" style="swimlane;fontStyle=1;childLayout=stackLayout;horizontal=1;startSize=40;horizontalStack=0;resizeParent=1;resizeParentMax=0;resizeLast=0;collapsible=1;marginBottom=0;align=center;fontSize=20;rounded=0;shadow=1;labelBorderColor=none;sketch=1;hachureGap=4;jiggle=2;fillStyle=cross-hatch;curveFitting=1;strokeColor=#99004D;strokeWidth=2;fontFamily=Helvetica;fillColor=none;gradientColor=none;" vertex="1" parent="obTtGBHouLAVe-Cv3UEX-1">
          <mxGeometry x="-1150" y="250" width="250" height="134" as="geometry" />
        </mxCell>
        <mxCell id="YHIWVxLttBBWoFxB0M0W-588" value="+ Value &lt;String&gt;" style="text;strokeColor=none;fillColor=none;spacingLeft=4;spacingRight=4;overflow=hidden;rotatable=0;points=[[0,0.5],[1,0.5]];portConstraint=eastwest;fontSize=25;fontFamily=Helvetica;" vertex="1" parent="YHIWVxLttBBWoFxB0M0W-587">
          <mxGeometry y="40" width="250" height="40" as="geometry" />
        </mxCell>
        <mxCell id="YHIWVxLttBBWoFxB0M0W-589" value="" style="line;strokeWidth=1;rotatable=0;dashed=0;labelPosition=right;align=left;verticalAlign=middle;spacingTop=0;spacingLeft=6;points=[];portConstraint=eastwest;sketch=1;hachureGap=4;jiggle=2;curveFitting=1;strokeColor=#99004D;fontFamily=Architects Daughter;fontSource=https%3A%2F%2Ffonts.googleapis.com%2Fcss%3Ffamily%3DArchitects%2BDaughter;fontSize=20;" vertex="1" parent="YHIWVxLttBBWoFxB0M0W-587">
          <mxGeometry y="80" width="250" height="10" as="geometry" />
        </mxCell>
        <mxCell id="YHIWVxLttBBWoFxB0M0W-591" value="+ EnumValidation()" style="text;strokeColor=none;fillColor=none;spacingLeft=4;spacingRight=4;overflow=hidden;rotatable=0;points=[[0,0.5],[1,0.5]];portConstraint=eastwest;fontSize=25;fontFamily=Helvetica;" vertex="1" parent="YHIWVxLttBBWoFxB0M0W-587">
          <mxGeometry y="90" width="250" height="44" as="geometry" />
        </mxCell>
        <mxCell id="YHIWVxLttBBWoFxB0M0W-593" value="Quantity[OV]" style="swimlane;fontStyle=1;childLayout=stackLayout;horizontal=1;startSize=40;horizontalStack=0;resizeParent=1;resizeParentMax=0;resizeLast=0;collapsible=1;marginBottom=0;align=center;fontSize=20;rounded=0;shadow=1;labelBorderColor=none;sketch=1;hachureGap=4;jiggle=2;fillStyle=cross-hatch;curveFitting=1;strokeColor=#99004D;strokeWidth=2;fontFamily=Helvetica;fillColor=none;gradientColor=none;" vertex="1" parent="obTtGBHouLAVe-Cv3UEX-1">
          <mxGeometry x="-1160" y="-4" width="290" height="134" as="geometry" />
        </mxCell>
        <mxCell id="YHIWVxLttBBWoFxB0M0W-594" value="+ Value &lt;Number&gt;" style="text;strokeColor=none;fillColor=none;spacingLeft=4;spacingRight=4;overflow=hidden;rotatable=0;points=[[0,0.5],[1,0.5]];portConstraint=eastwest;fontSize=25;fontFamily=Helvetica;" vertex="1" parent="YHIWVxLttBBWoFxB0M0W-593">
          <mxGeometry y="40" width="290" height="40" as="geometry" />
        </mxCell>
        <mxCell id="YHIWVxLttBBWoFxB0M0W-595" value="" style="line;strokeWidth=1;rotatable=0;dashed=0;labelPosition=right;align=left;verticalAlign=middle;spacingTop=0;spacingLeft=6;points=[];portConstraint=eastwest;sketch=1;hachureGap=4;jiggle=2;curveFitting=1;strokeColor=#99004D;fontFamily=Architects Daughter;fontSource=https%3A%2F%2Ffonts.googleapis.com%2Fcss%3Ffamily%3DArchitects%2BDaughter;fontSize=20;" vertex="1" parent="YHIWVxLttBBWoFxB0M0W-593">
          <mxGeometry y="80" width="290" height="10" as="geometry" />
        </mxCell>
        <mxCell id="YHIWVxLttBBWoFxB0M0W-596" value="+ IsGreatherThanZero()" style="text;strokeColor=none;fillColor=none;spacingLeft=4;spacingRight=4;overflow=hidden;rotatable=0;points=[[0,0.5],[1,0.5]];portConstraint=eastwest;fontSize=25;fontFamily=Helvetica;" vertex="1" parent="YHIWVxLttBBWoFxB0M0W-593">
          <mxGeometry y="90" width="290" height="44" as="geometry" />
        </mxCell>
        <mxCell id="YHIWVxLttBBWoFxB0M0W-597" style="edgeStyle=orthogonalEdgeStyle;rounded=0;sketch=1;hachureGap=4;jiggle=2;curveFitting=1;orthogonalLoop=1;jettySize=auto;html=1;entryX=1;entryY=0.25;entryDx=0;entryDy=0;fontFamily=Architects Daughter;fontSource=https%3A%2F%2Ffonts.googleapis.com%2Fcss%3Ffamily%3DArchitects%2BDaughter;fontSize=16;" edge="1" parent="obTtGBHouLAVe-Cv3UEX-1" source="YHIWVxLttBBWoFxB0M0W-315" target="YHIWVxLttBBWoFxB0M0W-593">
          <mxGeometry relative="1" as="geometry">
            <Array as="points">
              <mxPoint x="-840" y="-75" />
              <mxPoint x="-840" y="29" />
            </Array>
          </mxGeometry>
        </mxCell>
        <mxCell id="YHIWVxLttBBWoFxB0M0W-598" style="edgeStyle=orthogonalEdgeStyle;rounded=0;sketch=1;hachureGap=4;jiggle=2;curveFitting=1;orthogonalLoop=1;jettySize=auto;html=1;exitX=0;exitY=0.5;exitDx=0;exitDy=0;entryX=1;entryY=0.25;entryDx=0;entryDy=0;fontFamily=Architects Daughter;fontSource=https%3A%2F%2Ffonts.googleapis.com%2Fcss%3Ffamily%3DArchitects%2BDaughter;fontSize=16;" edge="1" parent="obTtGBHouLAVe-Cv3UEX-1" source="YHIWVxLttBBWoFxB0M0W-318" target="YHIWVxLttBBWoFxB0M0W-587">
          <mxGeometry relative="1" as="geometry">
            <Array as="points">
              <mxPoint x="-810" y="-45" />
              <mxPoint x="-810" y="283" />
            </Array>
          </mxGeometry>
        </mxCell>
        <mxCell id="YHIWVxLttBBWoFxB0M0W-599" style="edgeStyle=orthogonalEdgeStyle;rounded=0;sketch=1;hachureGap=4;jiggle=2;curveFitting=1;orthogonalLoop=1;jettySize=auto;html=1;exitX=0;exitY=0.5;exitDx=0;exitDy=0;entryX=1;entryY=0.25;entryDx=0;entryDy=0;fontFamily=Architects Daughter;fontSource=https%3A%2F%2Ffonts.googleapis.com%2Fcss%3Ffamily%3DArchitects%2BDaughter;fontSize=16;" edge="1" parent="obTtGBHouLAVe-Cv3UEX-1" source="YHIWVxLttBBWoFxB0M0W-478" target="YHIWVxLttBBWoFxB0M0W-377">
          <mxGeometry relative="1" as="geometry">
            <Array as="points">
              <mxPoint x="-780" y="-15" />
              <mxPoint x="-780" y="513" />
            </Array>
          </mxGeometry>
        </mxCell>
        <mxCell id="YHIWVxLttBBWoFxB0M0W-601" style="edgeStyle=orthogonalEdgeStyle;rounded=0;sketch=1;hachureGap=4;jiggle=2;curveFitting=1;orthogonalLoop=1;jettySize=auto;html=1;exitX=0;exitY=0.5;exitDx=0;exitDy=0;entryX=1;entryY=0.5;entryDx=0;entryDy=0;fontFamily=Architects Daughter;fontSource=https%3A%2F%2Ffonts.googleapis.com%2Fcss%3Ffamily%3DArchitects%2BDaughter;fontSize=16;" edge="1" parent="obTtGBHouLAVe-Cv3UEX-1" source="YHIWVxLttBBWoFxB0M0W-154" target="YHIWVxLttBBWoFxB0M0W-297">
          <mxGeometry relative="1" as="geometry" />
        </mxCell>
        <mxCell id="YHIWVxLttBBWoFxB0M0W-602" style="edgeStyle=orthogonalEdgeStyle;rounded=0;sketch=1;hachureGap=4;jiggle=2;curveFitting=1;orthogonalLoop=1;jettySize=auto;html=1;entryX=0;entryY=0.5;entryDx=0;entryDy=0;fontFamily=Architects Daughter;fontSource=https%3A%2F%2Ffonts.googleapis.com%2Fcss%3Ffamily%3DArchitects%2BDaughter;fontSize=16;" edge="1" parent="obTtGBHouLAVe-Cv3UEX-1" source="YHIWVxLttBBWoFxB0M0W-157" target="YHIWVxLttBBWoFxB0M0W-486">
          <mxGeometry relative="1" as="geometry" />
        </mxCell>
        <mxCell id="YHIWVxLttBBWoFxB0M0W-609" value="Events" style="swimlane;fontStyle=1;childLayout=stackLayout;horizontal=1;startSize=40;horizontalStack=0;resizeParent=1;resizeParentMax=0;resizeLast=0;collapsible=1;marginBottom=0;align=center;fontSize=20;rounded=0;shadow=1;labelBorderColor=none;sketch=1;hachureGap=4;jiggle=2;fillStyle=cross-hatch;curveFitting=1;strokeColor=#FF8000;strokeWidth=2;fontFamily=Helvetica;fillColor=none;gradientColor=none;" vertex="1" parent="obTtGBHouLAVe-Cv3UEX-1">
          <mxGeometry x="-140" y="1000" width="370" height="220" as="geometry" />
        </mxCell>
        <mxCell id="YHIWVxLttBBWoFxB0M0W-610" value="+ RegisteredProduct()" style="shape=partialRectangle;connectable=0;fillColor=none;top=0;left=0;bottom=0;right=0;align=left;spacingLeft=6;overflow=hidden;sketch=1;hachureGap=4;jiggle=2;curveFitting=1;fontFamily=Helvetica;fontSize=20;" vertex="1" parent="YHIWVxLttBBWoFxB0M0W-609">
          <mxGeometry y="40" width="370" height="30" as="geometry">
            <mxRectangle width="280" height="30" as="alternateBounds" />
          </mxGeometry>
        </mxCell>
        <mxCell id="YHIWVxLttBBWoFxB0M0W-611" value="+ RegisteredProductQuantity()" style="shape=partialRectangle;connectable=0;fillColor=none;top=0;left=0;bottom=0;right=0;align=left;spacingLeft=6;overflow=hidden;sketch=1;hachureGap=4;jiggle=2;curveFitting=1;fontFamily=Helvetica;fontSize=20;" vertex="1" parent="YHIWVxLttBBWoFxB0M0W-609">
          <mxGeometry y="70" width="370" height="30" as="geometry">
            <mxRectangle width="280" height="30" as="alternateBounds" />
          </mxGeometry>
        </mxCell>
        <mxCell id="YHIWVxLttBBWoFxB0M0W-612" value="+ RegisteredResellerSale()" style="shape=partialRectangle;connectable=0;fillColor=none;top=0;left=0;bottom=0;right=0;align=left;spacingLeft=6;overflow=hidden;sketch=1;hachureGap=4;jiggle=2;curveFitting=1;fontFamily=Helvetica;fontSize=20;" vertex="1" parent="YHIWVxLttBBWoFxB0M0W-609">
          <mxGeometry y="100" width="370" height="30" as="geometry">
            <mxRectangle width="280" height="30" as="alternateBounds" />
          </mxGeometry>
        </mxCell>
        <mxCell id="YHIWVxLttBBWoFxB0M0W-613" value="+ RegisteredUser()" style="shape=partialRectangle;connectable=0;fillColor=none;top=0;left=0;bottom=0;right=0;align=left;spacingLeft=6;overflow=hidden;sketch=1;hachureGap=4;jiggle=2;curveFitting=1;fontFamily=Helvetica;fontSize=20;" vertex="1" parent="YHIWVxLttBBWoFxB0M0W-609">
          <mxGeometry y="130" width="370" height="30" as="geometry">
            <mxRectangle width="240" height="30" as="alternateBounds" />
          </mxGeometry>
        </mxCell>
        <mxCell id="YHIWVxLttBBWoFxB0M0W-614" value="+ RegisteredBranch()" style="shape=partialRectangle;connectable=0;fillColor=none;top=0;left=0;bottom=0;right=0;align=left;spacingLeft=6;overflow=hidden;sketch=1;hachureGap=4;jiggle=2;curveFitting=1;fontFamily=Helvetica;fontSize=20;" vertex="1" parent="YHIWVxLttBBWoFxB0M0W-609">
          <mxGeometry y="160" width="370" height="30" as="geometry">
            <mxRectangle width="259.99999999999955" height="30" as="alternateBounds" />
          </mxGeometry>
        </mxCell>
        <mxCell id="YHIWVxLttBBWoFxB0M0W-615" value="+ RegisteredFinalCustomerSale()" style="shape=partialRectangle;connectable=0;fillColor=none;top=0;left=0;bottom=0;right=0;align=left;spacingLeft=6;overflow=hidden;sketch=1;hachureGap=4;jiggle=2;curveFitting=1;fontFamily=Helvetica;fontSize=20;" vertex="1" parent="YHIWVxLttBBWoFxB0M0W-609">
          <mxGeometry y="190" width="370" height="30" as="geometry">
            <mxRectangle width="280" height="30" as="alternateBounds" />
          </mxGeometry>
        </mxCell>
      </root>
    </mxGraphModel>
  </diagram>
</mxfile>
